{
	"patcher" : 	{
		"fileversion" : 1,
		"appversion" : 		{
			"major" : 9,
			"minor" : 0,
			"revision" : 4,
			"architecture" : "x64",
			"modernui" : 1
		}
,
		"classnamespace" : "box",
		"rect" : [ 34.0, 87.0, 1438.0, 959.0 ],
		"gridsize" : [ 15.0, 15.0 ],
		"boxes" : [ 			{
				"box" : 				{
					"id" : "obj-20",
					"maxclass" : "newobj",
					"numinlets" : 1,
					"numoutlets" : 1,
					"outlettype" : [ "bang" ],
					"patching_rect" : [ 1172.0, 424.0, 58.0, 22.0 ],
					"text" : "loadbang"
				}

			}
, 			{
				"box" : 				{
					"id" : "obj-140",
					"maxclass" : "comment",
					"numinlets" : 1,
					"numoutlets" : 0,
					"patching_rect" : [ 1290.5, 249.0, 53.0, 20.0 ],
					"text" : "amt"
				}

			}
, 			{
				"box" : 				{
					"id" : "obj-139",
					"maxclass" : "comment",
					"numinlets" : 1,
					"numoutlets" : 0,
					"patching_rect" : [ 1229.5, 203.0, 151.0, 20.0 ],
					"text" : "curl size (smaller is bigger)"
				}

			}
, 			{
				"box" : 				{
					"id" : "obj-138",
					"maxclass" : "comment",
					"numinlets" : 1,
					"numoutlets" : 0,
					"patching_rect" : [ 1198.5, 179.0, 41.0, 20.0 ],
					"text" : "speed"
				}

			}
, 			{
				"box" : 				{
					"format" : 6,
					"id" : "obj-130",
					"maxclass" : "flonum",
					"numinlets" : 1,
					"numoutlets" : 2,
					"outlettype" : [ "", "bang" ],
					"parameter_enable" : 0,
					"patching_rect" : [ 1238.5, 248.0, 50.0, 22.0 ]
				}

			}
, 			{
				"box" : 				{
					"format" : 6,
					"id" : "obj-48",
					"maxclass" : "flonum",
					"numinlets" : 1,
					"numoutlets" : 2,
					"outlettype" : [ "", "bang" ],
					"parameter_enable" : 0,
					"patching_rect" : [ 1208.5, 223.0, 50.0, 22.0 ]
				}

			}
, 			{
				"box" : 				{
					"format" : 6,
					"id" : "obj-131",
					"maxclass" : "flonum",
					"numinlets" : 1,
					"numoutlets" : 2,
					"outlettype" : [ "", "bang" ],
					"parameter_enable" : 0,
					"patching_rect" : [ 1179.5, 202.0, 50.0, 22.0 ]
				}

			}
, 			{
				"box" : 				{
					"format" : 6,
					"id" : "obj-132",
					"maxclass" : "flonum",
					"numinlets" : 1,
					"numoutlets" : 2,
					"outlettype" : [ "", "bang" ],
					"parameter_enable" : 0,
					"patching_rect" : [ 1149.5, 178.0, 50.0, 22.0 ]
				}

			}
, 			{
				"box" : 				{
					"id" : "obj-133",
					"maxclass" : "newobj",
					"numinlets" : 4,
					"numoutlets" : 1,
					"outlettype" : [ "" ],
					"patching_rect" : [ 1149.5, 285.0, 108.0, 22.0 ],
					"text" : "pak 0.5 0.2 0.2 0.2"
				}

			}
, 			{
				"box" : 				{
					"id" : "obj-134",
					"maxclass" : "newobj",
					"numinlets" : 1,
					"numoutlets" : 1,
					"outlettype" : [ "" ],
					"patching_rect" : [ 1149.5, 312.0, 121.0, 22.0 ],
					"text" : "prepend noise_factor"
				}

			}
, 			{
				"box" : 				{
					"fontface" : 0,
					"format" : 6,
					"id" : "obj-135",
					"maxclass" : "flonum",
					"numinlets" : 1,
					"numoutlets" : 2,
					"outlettype" : [ "", "bang" ],
					"parameter_enable" : 0,
					"patching_rect" : [ 952.5, 134.0, 68.0, 22.0 ]
				}

			}
, 			{
				"box" : 				{
					"fontface" : 0,
					"id" : "obj-55",
					"maxclass" : "message",
					"numinlets" : 2,
					"numoutlets" : 1,
					"outlettype" : [ "" ],
					"patching_rect" : [ 952.5, 178.0, 77.0, 22.0 ],
					"text" : "vel_damp $1"
				}

			}
, 			{
				"box" : 				{
					"attr" : "gamma",
					"id" : "obj-127",
					"maxclass" : "attrui",
					"numinlets" : 1,
					"numoutlets" : 1,
					"outlettype" : [ "" ],
					"parameter_enable" : 0,
					"patching_rect" : [ 283.0, 844.0, 150.0, 22.0 ]
				}

			}
, 			{
				"box" : 				{
					"attr" : "white_point",
					"id" : "obj-126",
					"maxclass" : "attrui",
					"numinlets" : 1,
					"numoutlets" : 1,
					"outlettype" : [ "" ],
					"parameter_enable" : 0,
					"patching_rect" : [ 268.0, 877.0, 150.0, 22.0 ]
				}

			}
, 			{
				"box" : 				{
					"attr" : "erase_color",
					"id" : "obj-124",
					"maxclass" : "attrui",
					"numinlets" : 1,
					"numoutlets" : 1,
					"outlettype" : [ "" ],
					"parameter_enable" : 0,
					"patching_rect" : [ 74.0, 789.0, 365.0, 22.0 ]
				}

			}
, 			{
				"box" : 				{
					"filename" : "smear.jxp",
					"id" : "obj-122",
					"maxclass" : "newobj",
					"numinlets" : 1,
					"numoutlets" : 3,
					"outlettype" : [ "jit_gl_texture", "", "" ],
					"patching_rect" : [ 140.5, 820.0, 150.0, 22.0 ],
					"text" : "jit.gl.pass @fxname smear",
					"textfile" : 					{
						"filename" : "smear.jxp",
						"flags" : 0,
						"embed" : 0,
						"autowatch" : 1
					}

				}

			}
, 			{
				"box" : 				{
					"attr" : "position",
					"id" : "obj-121",
					"maxclass" : "attrui",
					"numinlets" : 1,
					"numoutlets" : 1,
					"outlettype" : [ "" ],
					"parameter_enable" : 0,
					"patching_rect" : [ 531.0, 747.0, 194.0, 22.0 ],
					"text_width" : 65.0
				}

			}
, 			{
				"box" : 				{
					"attr" : "depth_enable",
					"id" : "obj-119",
					"maxclass" : "attrui",
					"numinlets" : 1,
					"numoutlets" : 1,
					"outlettype" : [ "" ],
					"parameter_enable" : 0,
					"patching_rect" : [ 570.0, 651.0, 150.0, 22.0 ]
				}

			}
, 			{
				"box" : 				{
					"attr" : "bloom_amt",
					"id" : "obj-118",
					"maxclass" : "attrui",
					"numinlets" : 1,
					"numoutlets" : 1,
					"outlettype" : [ "" ],
					"parameter_enable" : 0,
					"patching_rect" : [ 218.5, 718.0, 150.0, 22.0 ]
				}

			}
, 			{
				"box" : 				{
					"attr" : "threshold",
					"id" : "obj-89",
					"maxclass" : "attrui",
					"numinlets" : 1,
					"numoutlets" : 1,
					"outlettype" : [ "" ],
					"parameter_enable" : 0,
					"patching_rect" : [ 218.5, 753.0, 150.0, 22.0 ]
				}

			}
, 			{
				"box" : 				{
					"filename" : "bloom.jxp",
					"id" : "obj-86",
					"maxclass" : "newobj",
					"numinlets" : 1,
					"numoutlets" : 3,
					"outlettype" : [ "jit_gl_texture", "", "" ],
					"patching_rect" : [ 70.5, 855.0, 167.0, 22.0 ],
					"text" : "jit.gl.pass @fxname bloom-hq",
					"textfile" : 					{
						"filename" : "bloom.jxp",
						"flags" : 0,
						"embed" : 0,
						"autowatch" : 1
					}

				}

			}
, 			{
				"box" : 				{
					"attr" : "blend_enable",
					"id" : "obj-85",
					"maxclass" : "attrui",
					"numinlets" : 1,
					"numoutlets" : 1,
					"outlettype" : [ "" ],
					"parameter_enable" : 0,
					"patching_rect" : [ 575.0, 689.0, 150.0, 22.0 ]
				}

			}
, 			{
				"box" : 				{
					"attr" : "amt",
					"id" : "obj-83",
					"maxclass" : "attrui",
					"numinlets" : 1,
					"numoutlets" : 1,
					"outlettype" : [ "" ],
					"parameter_enable" : 0,
					"patching_rect" : [ 173.0, 631.0, 101.0, 22.0 ],
					"text_width" : 47.0
				}

			}
, 			{
				"box" : 				{
					"id" : "obj-81",
					"maxclass" : "newobj",
					"numinlets" : 1,
					"numoutlets" : 2,
					"outlettype" : [ "jit_matrix", "" ],
					"patcher" : 					{
						"fileversion" : 1,
						"appversion" : 						{
							"major" : 9,
							"minor" : 0,
							"revision" : 4,
							"architecture" : "x64",
							"modernui" : 1
						}
,
						"classnamespace" : "jit.gen",
						"rect" : [ 554.0, 312.0, 600.0, 450.0 ],
						"gridsize" : [ 15.0, 15.0 ],
						"boxes" : [ 							{
								"box" : 								{
									"id" : "obj-13",
									"maxclass" : "newobj",
									"numinlets" : 1,
									"numoutlets" : 1,
									"outlettype" : [ "" ],
									"patching_rect" : [ 337.0, 173.0, 26.0, 22.0 ],
									"text" : "- 1."
								}

							}
, 							{
								"box" : 								{
									"id" : "obj-12",
									"maxclass" : "newobj",
									"numinlets" : 1,
									"numoutlets" : 1,
									"outlettype" : [ "" ],
									"patching_rect" : [ 337.0, 149.0, 27.0, 22.0 ],
									"text" : "* 2."
								}

							}
, 							{
								"box" : 								{
									"id" : "obj-11",
									"maxclass" : "newobj",
									"numinlets" : 2,
									"numoutlets" : 1,
									"outlettype" : [ "" ],
									"patching_rect" : [ 297.0, 332.0, 29.5, 22.0 ],
									"text" : "+"
								}

							}
, 							{
								"box" : 								{
									"id" : "obj-10",
									"maxclass" : "newobj",
									"numinlets" : 2,
									"numoutlets" : 1,
									"outlettype" : [ "" ],
									"patching_rect" : [ 323.0, 266.0, 29.5, 22.0 ],
									"text" : "*"
								}

							}
, 							{
								"box" : 								{
									"id" : "obj-9",
									"maxclass" : "newobj",
									"numinlets" : 0,
									"numoutlets" : 1,
									"outlettype" : [ "" ],
									"patching_rect" : [ 355.0, 223.0, 79.0, 22.0 ],
									"text" : "param amt 0."
								}

							}
, 							{
								"box" : 								{
									"id" : "obj-8",
									"maxclass" : "newobj",
									"numinlets" : 0,
									"numoutlets" : 1,
									"outlettype" : [ "" ],
									"patching_rect" : [ 337.0, 125.0, 37.0, 22.0 ],
									"text" : "noise"
								}

							}
, 							{
								"box" : 								{
									"id" : "obj-7",
									"maxclass" : "newobj",
									"numinlets" : 3,
									"numoutlets" : 1,
									"outlettype" : [ "" ],
									"patching_rect" : [ 163.0, 314.0, 104.0, 22.0 ],
									"text" : "?"
								}

							}
, 							{
								"box" : 								{
									"id" : "obj-6",
									"maxclass" : "newobj",
									"numinlets" : 1,
									"numoutlets" : 1,
									"outlettype" : [ "" ],
									"patching_rect" : [ 241.0, 142.0, 26.0, 22.0 ],
									"text" : "> 0"
								}

							}
, 							{
								"box" : 								{
									"id" : "obj-5",
									"maxclass" : "newobj",
									"numinlets" : 1,
									"numoutlets" : 1,
									"outlettype" : [ "" ],
									"patching_rect" : [ 241.0, 104.0, 41.0, 22.0 ],
									"text" : "swiz z"
								}

							}
, 							{
								"box" : 								{
									"id" : "obj-1",
									"maxclass" : "newobj",
									"numinlets" : 0,
									"numoutlets" : 1,
									"outlettype" : [ "" ],
									"patching_rect" : [ 50.0, 14.0, 28.0, 22.0 ],
									"text" : "in 1"
								}

							}
, 							{
								"box" : 								{
									"id" : "obj-4",
									"maxclass" : "newobj",
									"numinlets" : 1,
									"numoutlets" : 0,
									"patching_rect" : [ 163.0, 367.0, 35.0, 22.0 ],
									"text" : "out 1"
								}

							}
 ],
						"lines" : [ 							{
								"patchline" : 								{
									"destination" : [ "obj-11", 0 ],
									"order" : 0,
									"source" : [ "obj-1", 0 ]
								}

							}
, 							{
								"patchline" : 								{
									"destination" : [ "obj-5", 0 ],
									"order" : 2,
									"source" : [ "obj-1", 0 ]
								}

							}
, 							{
								"patchline" : 								{
									"destination" : [ "obj-7", 2 ],
									"order" : 1,
									"source" : [ "obj-1", 0 ]
								}

							}
, 							{
								"patchline" : 								{
									"destination" : [ "obj-11", 1 ],
									"source" : [ "obj-10", 0 ]
								}

							}
, 							{
								"patchline" : 								{
									"destination" : [ "obj-7", 1 ],
									"source" : [ "obj-11", 0 ]
								}

							}
, 							{
								"patchline" : 								{
									"destination" : [ "obj-13", 0 ],
									"source" : [ "obj-12", 0 ]
								}

							}
, 							{
								"patchline" : 								{
									"destination" : [ "obj-10", 0 ],
									"source" : [ "obj-13", 0 ]
								}

							}
, 							{
								"patchline" : 								{
									"destination" : [ "obj-6", 0 ],
									"source" : [ "obj-5", 0 ]
								}

							}
, 							{
								"patchline" : 								{
									"destination" : [ "obj-7", 0 ],
									"source" : [ "obj-6", 0 ]
								}

							}
, 							{
								"patchline" : 								{
									"destination" : [ "obj-4", 0 ],
									"source" : [ "obj-7", 0 ]
								}

							}
, 							{
								"patchline" : 								{
									"destination" : [ "obj-12", 0 ],
									"source" : [ "obj-8", 0 ]
								}

							}
, 							{
								"patchline" : 								{
									"destination" : [ "obj-10", 1 ],
									"source" : [ "obj-9", 0 ]
								}

							}
 ],
						"originid" : "pat-113"
					}
,
					"patching_rect" : [ 127.0, 682.0, 41.0, 22.0 ],
					"text" : "jit.gen"
				}

			}
, 			{
				"box" : 				{
					"id" : "obj-50",
					"maxclass" : "number",
					"numinlets" : 1,
					"numoutlets" : 2,
					"outlettype" : [ "", "bang" ],
					"parameter_enable" : 0,
					"patching_rect" : [ 474.0, 565.0, 50.0, 22.0 ]
				}

			}
, 			{
				"box" : 				{
					"attr" : "slide_up",
					"id" : "obj-44",
					"maxclass" : "attrui",
					"numinlets" : 1,
					"numoutlets" : 1,
					"outlettype" : [ "" ],
					"parameter_enable" : 0,
					"patching_rect" : [ 302.0, 574.0, 149.0, 22.0 ]
				}

			}
, 			{
				"box" : 				{
					"attr" : "slide_down",
					"id" : "obj-43",
					"maxclass" : "attrui",
					"numinlets" : 1,
					"numoutlets" : 1,
					"outlettype" : [ "" ],
					"parameter_enable" : 0,
					"patching_rect" : [ 301.0, 548.0, 150.0, 22.0 ]
				}

			}
, 			{
				"box" : 				{
					"id" : "obj-25",
					"maxclass" : "newobj",
					"numinlets" : 1,
					"numoutlets" : 2,
					"outlettype" : [ "jit_matrix", "" ],
					"patching_rect" : [ 48.0, 519.0, 214.0, 22.0 ],
					"text" : "jit.slide @slide_down 10 @slide_up 10"
				}

			}
, 			{
				"box" : 				{
					"id" : "obj-10",
					"maxclass" : "message",
					"numinlets" : 2,
					"numoutlets" : 1,
					"outlettype" : [ "" ],
					"patching_rect" : [ 374.0, 117.0, 111.0, 22.0 ],
					"text" : "erase_color 0 0 0 0"
				}

			}
, 			{
				"box" : 				{
					"color" : [ 0.059509769082069, 0.501929938793182, 0.998454749584198, 1.0 ],
					"id" : "obj-187",
					"maxclass" : "newobj",
					"numinlets" : 1,
					"numoutlets" : 2,
					"outlettype" : [ "jit_gl_buffer", "" ],
					"patching_rect" : [ 984.0, 558.0, 232.0, 22.0 ],
					"text" : "jit.gl.buffer @type color @outname Color1"
				}

			}
, 			{
				"box" : 				{
					"id" : "obj-185",
					"maxclass" : "jit.pwindow",
					"numinlets" : 1,
					"numoutlets" : 2,
					"outlettype" : [ "jit_matrix", "" ],
					"patching_rect" : [ 267.0, 460.0, 105.0, 56.0 ],
					"sync" : 1
				}

			}
, 			{
				"box" : 				{
					"id" : "obj-184",
					"int" : 1,
					"maxclass" : "gswitch2",
					"numinlets" : 2,
					"numoutlets" : 2,
					"outlettype" : [ "", "" ],
					"parameter_enable" : 0,
					"patching_rect" : [ 66.0, 259.0, 39.0, 32.0 ]
				}

			}
, 			{
				"box" : 				{
					"attr" : "scale",
					"id" : "obj-183",
					"maxclass" : "attrui",
					"numinlets" : 1,
					"numoutlets" : 1,
					"outlettype" : [ "" ],
					"parameter_enable" : 0,
					"patching_rect" : [ 491.0, 785.0, 183.0, 22.0 ],
					"text_width" : 50.0
				}

			}
, 			{
				"box" : 				{
					"id" : "obj-180",
					"maxclass" : "jit.pwindow",
					"numinlets" : 1,
					"numoutlets" : 2,
					"outlettype" : [ "jit_matrix", "" ],
					"patching_rect" : [ 374.0, 459.0, 105.0, 58.0 ],
					"sync" : 1
				}

			}
, 			{
				"box" : 				{
					"id" : "obj-178",
					"maxclass" : "message",
					"numinlets" : 2,
					"numoutlets" : 1,
					"outlettype" : [ "" ],
					"patching_rect" : [ 846.0, 832.0, 35.0, 22.0 ],
					"text" : "reset"
				}

			}
, 			{
				"box" : 				{
					"attr" : "transform_reset",
					"id" : "obj-176",
					"maxclass" : "attrui",
					"numinlets" : 1,
					"numoutlets" : 1,
					"outlettype" : [ "" ],
					"parameter_enable" : 0,
					"patching_rect" : [ 534.0, 834.0, 180.0, 22.0 ]
				}

			}
, 			{
				"box" : 				{
					"id" : "obj-172",
					"maxclass" : "preset",
					"numinlets" : 1,
					"numoutlets" : 5,
					"outlettype" : [ "preset", "int", "preset", "int", "" ],
					"patching_rect" : [ 475.0, 54.0, 100.0, 40.0 ],
					"preset_data" : [ 						{
							"number" : 1,
							"data" : [ 5, "obj-181", "attrui", "attr", "preserve_aspect", 5, "obj-181", "attrui", "int", 0, 5, "obj-2", "jit.playlist", "preset_count", 1, 7, "obj-2", "jit.playlist", "preset_clipstate", 1, "filekind", "moviefile", 7, "obj-2", "jit.playlist", "preset_clipstate", 1, "absolutepath", "shadertoy_samurai_video.mp4", 7, "obj-2", "jit.playlist", "preset_clipstate", 1, "filename", "shadertoy_samurai_video.mp4", 7, "obj-2", "jit.playlist", "preset_clipstate", 1, "loop", 1, 8, "obj-2", "jit.playlist", "preset_clipstate", 1, "selection", -1.0, -1.0, 7, "obj-2", "jit.playlist", "preset_clipstate", 1, "id", "u438001123", 7, "obj-2", "jit.playlist", "preset_content", 1, "loop", 1, 4, "obj-2", "jit.playlist", "preset_execute", 5, "obj-5", "attrui", "attr", "output_texture", 5, "obj-5", "attrui", "int", 1, 5, "obj-30", "attrui", "attr", "point_mode", 4, "obj-30", "attrui", "circle_depth", 5, "obj-26", "number", "float", 1.799999952316284, 5, "obj-36", "number", "int", 100, 5, "obj-90", "toggle", "int", 1, 5, "obj-99", "attrui", "attr", "enable", 5, "obj-99", "attrui", "int", 1, 5, "obj-92", "attrui", "attr", "initcount", 5, "obj-92", "attrui", "int", 0, 5, "obj-52", "attrui", "attr", "speed", 5, "obj-52", "attrui", "float", 0.560000002384186, 5, "obj-40", "number", "float", 0.0, 5, "obj-112", "number", "float", 0.230000004172325, 5, "obj-111", "number", "int", 1, 5, "obj-61", "number", "float", 0.0, 5, "obj-60", "number", "float", 0.0, 5, "obj-110", "number", "float", 0.0, 5, "obj-105", "number", "float", 0.560000002384186, 5, "obj-129", "attrui", "attr", "enable", 5, "obj-129", "attrui", "int", 1, 5, "obj-142", "gswitch2", "int", 1, 5, "obj-158", "attrui", "attr", "point_size", 5, "obj-158", "attrui", "float", 5.0, 5, "obj-176", "attrui", "attr", "transform_reset", 5, "obj-176", "attrui", "int", 0, 5, "obj-183", "attrui", "attr", "scale", 7, "obj-183", "attrui", "list", 0.490000009536743, 0.310000002384186, 1.0 ]
						}
, 						{
							"number" : 2,
							"data" : [ 5, "obj-181", "attrui", "attr", "preserve_aspect", 5, "obj-181", "attrui", "int", 0, 5, "obj-2", "jit.playlist", "preset_count", 1, 7, "obj-2", "jit.playlist", "preset_clipstate", 1, "filekind", "moviefile", 7, "obj-2", "jit.playlist", "preset_clipstate", 1, "absolutepath", "shadertoy_samurai_video.mp4", 7, "obj-2", "jit.playlist", "preset_clipstate", 1, "filename", "shadertoy_samurai_video.mp4", 7, "obj-2", "jit.playlist", "preset_clipstate", 1, "loop", 1, 8, "obj-2", "jit.playlist", "preset_clipstate", 1, "selection", 0.362962962962963, 0.395061728395062, 7, "obj-2", "jit.playlist", "preset_clipstate", 1, "id", "u438001123", 7, "obj-2", "jit.playlist", "preset_content", 1, "loop", 1, 4, "obj-2", "jit.playlist", "preset_execute", 5, "obj-5", "attrui", "attr", "output_texture", 5, "obj-5", "attrui", "int", 1, 5, "obj-30", "attrui", "attr", "point_mode", 4, "obj-30", "attrui", "circle_depth", 5, "obj-26", "number", "float", 0.019999999552965, 5, "obj-36", "number", "int", 200, 5, "obj-90", "toggle", "int", 1, 5, "obj-99", "attrui", "attr", "enable", 5, "obj-99", "attrui", "int", 1, 5, "obj-92", "attrui", "attr", "initcount", 5, "obj-92", "attrui", "int", 0, 5, "obj-52", "attrui", "attr", "speed", 5, "obj-52", "attrui", "float", 0.239999994635582, 5, "obj-40", "number", "float", 0.0, 5, "obj-112", "number", "float", 0.100000001490116, 5, "obj-111", "number", "int", 1, 5, "obj-61", "number", "float", 0.0, 5, "obj-60", "number", "float", 0.0, 5, "obj-110", "number", "float", 0.0, 5, "obj-105", "number", "float", 0.239999994635582, 5, "obj-129", "attrui", "attr", "enable", 5, "obj-129", "attrui", "int", 1, 5, "obj-142", "gswitch2", "int", 1, 5, "obj-158", "attrui", "attr", "point_size", 5, "obj-158", "attrui", "float", 3.0, 5, "obj-176", "attrui", "attr", "transform_reset", 5, "obj-176", "attrui", "int", 0, 5, "obj-183", "attrui", "attr", "scale", 7, "obj-183", "attrui", "list", 1.330000042915344, 0.819999992847443, 1.0, 5, "obj-184", "gswitch2", "int", 0 ]
						}
, 						{
							"number" : 3,
							"data" : [ 5, "obj-181", "attrui", "attr", "preserve_aspect", 5, "obj-181", "attrui", "int", 0, 5, "obj-2", "jit.playlist", "preset_count", 1, 7, "obj-2", "jit.playlist", "preset_clipstate", 1, "filekind", "moviefile", 7, "obj-2", "jit.playlist", "preset_clipstate", 1, "absolutepath", "shadertoy_samurai_video.mp4", 7, "obj-2", "jit.playlist", "preset_clipstate", 1, "filename", "shadertoy_samurai_video.mp4", 7, "obj-2", "jit.playlist", "preset_clipstate", 1, "loop", 1, 8, "obj-2", "jit.playlist", "preset_clipstate", 1, "selection", -1.0, -1.0, 7, "obj-2", "jit.playlist", "preset_clipstate", 1, "id", "u438001123", 7, "obj-2", "jit.playlist", "preset_content", 1, "loop", 1, 4, "obj-2", "jit.playlist", "preset_execute", 5, "obj-5", "attrui", "attr", "output_texture", 5, "obj-5", "attrui", "int", 1, 5, "obj-30", "attrui", "attr", "point_mode", 4, "obj-30", "attrui", "circle_depth", 5, "obj-26", "number", "float", 0.019999999552965, 5, "obj-36", "number", "int", 200, 5, "obj-90", "toggle", "int", 1, 5, "obj-99", "attrui", "attr", "enable", 5, "obj-99", "attrui", "int", 1, 5, "obj-92", "attrui", "attr", "initcount", 5, "obj-92", "attrui", "int", 0, 5, "obj-52", "attrui", "attr", "speed", 5, "obj-52", "attrui", "float", 1.0, 5, "obj-40", "number", "float", 0.0, 5, "obj-112", "number", "float", 1.0, 5, "obj-111", "number", "int", 1, 5, "obj-61", "number", "float", 0.0, 5, "obj-60", "number", "float", 0.0, 5, "obj-110", "number", "float", 0.0, 5, "obj-105", "number", "float", 1.0, 5, "obj-129", "attrui", "attr", "enable", 5, "obj-129", "attrui", "int", 1, 5, "obj-142", "gswitch2", "int", 1, 5, "obj-158", "attrui", "attr", "point_size", 5, "obj-158", "attrui", "float", 5.0, 5, "obj-176", "attrui", "attr", "transform_reset", 5, "obj-176", "attrui", "int", 0, 5, "obj-183", "attrui", "attr", "scale", 7, "obj-183", "attrui", "list", 1.330000042915344, 0.819999992847443, 1.0, 5, "obj-184", "gswitch2", "int", 1 ]
						}
, 						{
							"number" : 4,
							"data" : [ 5, "obj-181", "attrui", "attr", "preserve_aspect", 5, "obj-181", "attrui", "int", 0, 5, "obj-2", "jit.playlist", "preset_count", 1, 7, "obj-2", "jit.playlist", "preset_clipstate", 1, "filekind", "moviefile", 7, "obj-2", "jit.playlist", "preset_clipstate", 1, "absolutepath", "shadertoy_samurai_video.mp4", 7, "obj-2", "jit.playlist", "preset_clipstate", 1, "filename", "shadertoy_samurai_video.mp4", 7, "obj-2", "jit.playlist", "preset_clipstate", 1, "loop", 1, 8, "obj-2", "jit.playlist", "preset_clipstate", 1, "selection", 0.362962962962963, 0.395061728395062, 7, "obj-2", "jit.playlist", "preset_clipstate", 1, "id", "u438001123", 7, "obj-2", "jit.playlist", "preset_content", 1, "loop", 1, 4, "obj-2", "jit.playlist", "preset_execute", 5, "obj-5", "attrui", "attr", "output_texture", 5, "obj-5", "attrui", "int", 1, 5, "obj-30", "attrui", "attr", "point_mode", 4, "obj-30", "attrui", "circle_depth", 5, "obj-26", "number", "float", 0.019999999552965, 5, "obj-36", "number", "int", 100, 5, "obj-90", "toggle", "int", 1, 5, "obj-99", "attrui", "attr", "enable", 5, "obj-99", "attrui", "int", 1, 5, "obj-92", "attrui", "attr", "initcount", 5, "obj-92", "attrui", "int", 0, 5, "obj-52", "attrui", "attr", "speed", 5, "obj-52", "attrui", "float", 1.0, 5, "obj-40", "number", "float", 0.0, 5, "obj-112", "number", "float", 2.0, 5, "obj-111", "number", "int", 1, 5, "obj-61", "number", "float", 0.0, 5, "obj-60", "number", "float", 0.0, 5, "obj-110", "number", "float", 0.0, 5, "obj-105", "number", "float", 1.0, 5, "obj-129", "attrui", "attr", "enable", 5, "obj-129", "attrui", "int", 1, 5, "obj-142", "gswitch2", "int", 1, 5, "obj-158", "attrui", "attr", "point_size", 5, "obj-158", "attrui", "float", 3.0, 5, "obj-176", "attrui", "attr", "transform_reset", 5, "obj-176", "attrui", "int", 0, 5, "obj-183", "attrui", "attr", "scale", 7, "obj-183", "attrui", "list", 1.330000042915344, 0.819999992847443, 1.0, 5, "obj-184", "gswitch2", "int", 0 ]
						}
, 						{
							"number" : 5,
							"data" : [ 5, "obj-181", "attrui", "attr", "preserve_aspect", 5, "obj-181", "attrui", "int", 0, 5, "obj-2", "jit.playlist", "preset_count", 1, 7, "obj-2", "jit.playlist", "preset_clipstate", 1, "filekind", "moviefile", 7, "obj-2", "jit.playlist", "preset_clipstate", 1, "absolutepath", "shadertoy_samurai_video.mp4", 7, "obj-2", "jit.playlist", "preset_clipstate", 1, "filename", "shadertoy_samurai_video.mp4", 7, "obj-2", "jit.playlist", "preset_clipstate", 1, "loop", 1, 8, "obj-2", "jit.playlist", "preset_clipstate", 1, "selection", -1.0, -1.0, 7, "obj-2", "jit.playlist", "preset_clipstate", 1, "id", "u438001123", 7, "obj-2", "jit.playlist", "preset_content", 1, "loop", 1, 4, "obj-2", "jit.playlist", "preset_execute", 5, "obj-5", "attrui", "attr", "output_texture", 5, "obj-5", "attrui", "int", 1, 5, "obj-30", "attrui", "attr", "point_mode", 4, "obj-30", "attrui", "circle_depth", 5, "obj-26", "number", "float", 0.019999999552965, 5, "obj-36", "number", "int", 200, 5, "obj-90", "toggle", "int", 1, 5, "obj-99", "attrui", "attr", "enable", 5, "obj-99", "attrui", "int", 1, 5, "obj-92", "attrui", "attr", "initcount", 5, "obj-92", "attrui", "int", 0, 5, "obj-52", "attrui", "attr", "speed", 5, "obj-52", "attrui", "float", 0.2, 5, "obj-40", "number", "float", 0.0, 5, "obj-112", "number", "float", 1.0, 5, "obj-111", "number", "int", 1, 5, "obj-61", "number", "float", 0.0, 5, "obj-60", "number", "float", 0.0, 5, "obj-110", "number", "float", 0.0, 5, "obj-105", "number", "float", 0.200000002980232, 5, "obj-129", "attrui", "attr", "enable", 5, "obj-129", "attrui", "int", 1, 5, "obj-142", "gswitch2", "int", 1, 5, "obj-158", "attrui", "attr", "point_size", 5, "obj-158", "attrui", "float", 11.0, 5, "obj-176", "attrui", "attr", "transform_reset", 5, "obj-176", "attrui", "int", 0, 5, "obj-183", "attrui", "attr", "scale", 7, "obj-183", "attrui", "list", 1.330000042915344, 0.819999992847443, 1.0, 5, "obj-184", "gswitch2", "int", 1, 5, "obj-43", "attrui", "attr", "slide_down", 5, "obj-43", "attrui", "float", 8.0, 5, "obj-44", "attrui", "attr", "slide_up", 5, "obj-44", "attrui", "float", 8.0, 5, "obj-50", "number", "int", 8, 5, "obj-83", "attrui", "attr", "amt", 5, "obj-83", "attrui", "float", 0.019999999552965, 5, "obj-85", "attrui", "attr", "blend_enable", 5, "obj-85", "attrui", "int", 1 ]
						}
, 						{
							"number" : 6,
							"data" : [ 5, "obj-181", "attrui", "attr", "preserve_aspect", 5, "obj-181", "attrui", "int", 0, 5, "obj-2", "jit.playlist", "preset_count", 1, 7, "obj-2", "jit.playlist", "preset_clipstate", 1, "filekind", "moviefile", 7, "obj-2", "jit.playlist", "preset_clipstate", 1, "absolutepath", "shadertoy_samurai_video.mp4", 7, "obj-2", "jit.playlist", "preset_clipstate", 1, "filename", "shadertoy_samurai_video.mp4", 7, "obj-2", "jit.playlist", "preset_clipstate", 1, "loop", 1, 8, "obj-2", "jit.playlist", "preset_clipstate", 1, "selection", -1.0, -1.0, 7, "obj-2", "jit.playlist", "preset_clipstate", 1, "id", "u438001123", 7, "obj-2", "jit.playlist", "preset_content", 1, "loop", 1, 4, "obj-2", "jit.playlist", "preset_execute", 5, "obj-5", "attrui", "attr", "output_texture", 5, "obj-5", "attrui", "int", 1, 5, "obj-30", "attrui", "attr", "point_mode", 4, "obj-30", "attrui", "circle_depth", 5, "obj-26", "number", "float", 0.019999999552965, 5, "obj-36", "number", "int", 200, 5, "obj-90", "toggle", "int", 1, 5, "obj-99", "attrui", "attr", "enable", 5, "obj-99", "attrui", "int", 1, 5, "obj-92", "attrui", "attr", "initcount", 5, "obj-92", "attrui", "int", 0, 5, "obj-52", "attrui", "attr", "speed", 5, "obj-52", "attrui", "float", 0.4, 5, "obj-40", "number", "float", 0.0, 5, "obj-112", "number", "float", 1.0, 5, "obj-111", "number", "int", 0, 5, "obj-61", "number", "float", 0.0, 5, "obj-60", "number", "float", 0.0, 5, "obj-110", "number", "float", 0.0, 5, "obj-105", "number", "float", 0.400000005960464, 5, "obj-129", "attrui", "attr", "enable", 5, "obj-129", "attrui", "int", 1, 5, "obj-142", "gswitch2", "int", 1, 5, "obj-158", "attrui", "attr", "point_size", 5, "obj-158", "attrui", "float", 13.0, 5, "obj-176", "attrui", "attr", "transform_reset", 5, "obj-176", "attrui", "int", 0, 5, "obj-183", "attrui", "attr", "scale", 7, "obj-183", "attrui", "list", 1.330000042915344, 0.819999992847443, 1.0, 5, "obj-184", "gswitch2", "int", 1, 5, "obj-43", "attrui", "attr", "slide_down", 5, "obj-43", "attrui", "float", 8.0, 5, "obj-44", "attrui", "attr", "slide_up", 5, "obj-44", "attrui", "float", 8.0, 5, "obj-50", "number", "int", 8, 5, "obj-83", "attrui", "attr", "amt", 5, "obj-83", "attrui", "float", 0.019999999552965, 5, "obj-85", "attrui", "attr", "blend_enable", 5, "obj-85", "attrui", "int", 0, 5, "obj-89", "attrui", "attr", "threshold", 5, "obj-89", "attrui", "float", 0.96, 5, "obj-118", "attrui", "attr", "bloom_amt", 5, "obj-118", "attrui", "float", 0.5, 5, "obj-119", "attrui", "attr", "depth_enable", 5, "obj-119", "attrui", "int", 1, 5, "obj-121", "attrui", "attr", "position", 7, "obj-121", "attrui", "list", 0.0, 0.0, 0.0, 5, "obj-124", "attrui", "attr", "erase_color", 8, "obj-124", "attrui", "list", 0.0073, 0.0, 0.06, 0.004, 5, "obj-126", "attrui", "attr", "white_point", 5, "obj-126", "attrui", "float", 1.49, 5, "obj-127", "attrui", "attr", "gamma", 5, "obj-127", "attrui", "float", 1.32, 5, "obj-135", "number", "float", 0.998000025749207, 5, "obj-132", "number", "float", 13.0, 5, "obj-131", "number", "float", 2.640000104904175, 5, "obj-48", "number", "float", 0.370000004768372, 5, "obj-130", "number", "float", 0.090000003576279 ]
						}
 ]
				}

			}
, 			{
				"box" : 				{
					"attr" : "point_size",
					"id" : "obj-158",
					"maxclass" : "attrui",
					"numinlets" : 1,
					"numoutlets" : 1,
					"outlettype" : [ "" ],
					"parameter_enable" : 0,
					"patching_rect" : [ 1074.0, 832.0, 150.0, 22.0 ]
				}

			}
, 			{
				"box" : 				{
					"id" : "obj-156",
					"maxclass" : "newobj",
					"numinlets" : 1,
					"numoutlets" : 2,
					"outlettype" : [ "", "" ],
					"patching_rect" : [ 774.0, 832.0, 69.0, 22.0 ],
					"text" : "jit.gl.handle"
				}

			}
, 			{
				"box" : 				{
					"id" : "obj-143",
					"maxclass" : "newobj",
					"numinlets" : 1,
					"numoutlets" : 2,
					"outlettype" : [ "jit_matrix", "" ],
					"patching_rect" : [ 1043.5, 605.0, 227.0, 22.0 ],
					"text" : "jit.scanwrap 3 float32 1000000 @mode 1"
				}

			}
, 			{
				"box" : 				{
					"id" : "obj-142",
					"int" : 1,
					"maxclass" : "gswitch2",
					"numinlets" : 2,
					"numoutlets" : 2,
					"outlettype" : [ "", "" ],
					"parameter_enable" : 0,
					"patching_rect" : [ 49.0, 581.0, 39.0, 32.0 ]
				}

			}
, 			{
				"box" : 				{
					"attr" : "enable",
					"id" : "obj-129",
					"maxclass" : "attrui",
					"numinlets" : 1,
					"numoutlets" : 1,
					"outlettype" : [ "" ],
					"parameter_enable" : 0,
					"patching_rect" : [ 1113.0, 858.0, 116.0, 22.0 ],
					"text_width" : 69.0
				}

			}
, 			{
				"box" : 				{
					"id" : "obj-72",
					"maxclass" : "comment",
					"numinlets" : 1,
					"numoutlets" : 0,
					"patching_rect" : [ 846.0, 270.0, 19.0, 20.0 ],
					"text" : "z"
				}

			}
, 			{
				"box" : 				{
					"id" : "obj-73",
					"maxclass" : "comment",
					"numinlets" : 1,
					"numoutlets" : 0,
					"patching_rect" : [ 794.0, 270.0, 19.0, 20.0 ],
					"text" : "y"
				}

			}
, 			{
				"box" : 				{
					"id" : "obj-74",
					"maxclass" : "comment",
					"numinlets" : 1,
					"numoutlets" : 0,
					"patching_rect" : [ 739.0, 270.0, 19.0, 20.0 ],
					"text" : "x"
				}

			}
, 			{
				"box" : 				{
					"id" : "obj-102",
					"maxclass" : "comment",
					"numinlets" : 1,
					"numoutlets" : 0,
					"patching_rect" : [ 862.0, 169.5, 68.0, 20.0 ],
					"text" : "color mode"
				}

			}
, 			{
				"box" : 				{
					"id" : "obj-103",
					"linecount" : 2,
					"maxclass" : "comment",
					"numinlets" : 1,
					"numoutlets" : 0,
					"patching_rect" : [ 809.0, 123.5, 92.0, 33.0 ],
					"text" : "particle lifetime (secs)"
				}

			}
, 			{
				"box" : 				{
					"id" : "obj-8",
					"linecount" : 2,
					"maxclass" : "comment",
					"numinlets" : 1,
					"numoutlets" : 0,
					"patching_rect" : [ 757.0, 84.5, 150.0, 33.0 ],
					"text" : "time between launches (secs)"
				}

			}
, 			{
				"box" : 				{
					"id" : "obj-104",
					"maxclass" : "comment",
					"numinlets" : 1,
					"numoutlets" : 0,
					"patching_rect" : [ 743.0, 249.0, 122.0, 20.0 ],
					"text" : "emitter position offset"
				}

			}
, 			{
				"box" : 				{
					"id" : "obj-28",
					"maxclass" : "comment",
					"numinlets" : 1,
					"numoutlets" : 0,
					"patching_rect" : [ 993.0, 249.0, 99.0, 20.0 ],
					"text" : "simulation speed"
				}

			}
, 			{
				"box" : 				{
					"format" : 6,
					"id" : "obj-105",
					"maxclass" : "flonum",
					"minimum" : 0.0,
					"numinlets" : 1,
					"numoutlets" : 2,
					"outlettype" : [ "", "bang" ],
					"parameter_enable" : 1,
					"patching_rect" : [ 938.0, 249.0, 50.0, 22.0 ],
					"saved_attribute_attributes" : 					{
						"valueof" : 						{
							"parameter_invisible" : 1,
							"parameter_longname" : "number",
							"parameter_modmode" : 0,
							"parameter_osc_name" : "<default>",
							"parameter_shortname" : "number",
							"parameter_type" : 3
						}

					}
,
					"varname" : "number"
				}

			}
, 			{
				"box" : 				{
					"id" : "obj-109",
					"maxclass" : "newobj",
					"numinlets" : 1,
					"numoutlets" : 1,
					"outlettype" : [ "" ],
					"patching_rect" : [ 727.0, 338.0, 85.0, 22.0 ],
					"text" : "prepend offset"
				}

			}
, 			{
				"box" : 				{
					"format" : 6,
					"id" : "obj-110",
					"maxclass" : "flonum",
					"numinlets" : 1,
					"numoutlets" : 2,
					"outlettype" : [ "", "bang" ],
					"parameter_enable" : 1,
					"patching_rect" : [ 727.0, 290.0, 50.0, 22.0 ],
					"saved_attribute_attributes" : 					{
						"valueof" : 						{
							"parameter_invisible" : 1,
							"parameter_longname" : "number[8]",
							"parameter_modmode" : 0,
							"parameter_osc_name" : "<default>",
							"parameter_shortname" : "number[8]",
							"parameter_type" : 3
						}

					}
,
					"varname" : "number[8]"
				}

			}
, 			{
				"box" : 				{
					"format" : 6,
					"id" : "obj-60",
					"maxclass" : "flonum",
					"numinlets" : 1,
					"numoutlets" : 2,
					"outlettype" : [ "", "bang" ],
					"parameter_enable" : 1,
					"patching_rect" : [ 831.0, 290.0, 50.0, 22.0 ],
					"saved_attribute_attributes" : 					{
						"valueof" : 						{
							"parameter_invisible" : 1,
							"parameter_longname" : "number[10]",
							"parameter_modmode" : 0,
							"parameter_osc_name" : "<default>",
							"parameter_shortname" : "number[10]",
							"parameter_type" : 3
						}

					}
,
					"varname" : "number[10]"
				}

			}
, 			{
				"box" : 				{
					"format" : 6,
					"id" : "obj-61",
					"maxclass" : "flonum",
					"numinlets" : 1,
					"numoutlets" : 2,
					"outlettype" : [ "", "bang" ],
					"parameter_enable" : 1,
					"patching_rect" : [ 779.0, 290.0, 50.0, 22.0 ],
					"saved_attribute_attributes" : 					{
						"valueof" : 						{
							"parameter_invisible" : 1,
							"parameter_longname" : "number[9]",
							"parameter_modmode" : 0,
							"parameter_osc_name" : "<default>",
							"parameter_shortname" : "number[9]",
							"parameter_type" : 3
						}

					}
,
					"varname" : "number[9]"
				}

			}
, 			{
				"box" : 				{
					"id" : "obj-111",
					"maxclass" : "number",
					"maximum" : 29,
					"minimum" : 0,
					"numinlets" : 1,
					"numoutlets" : 2,
					"outlettype" : [ "", "bang" ],
					"parameter_enable" : 1,
					"patching_rect" : [ 809.0, 169.5, 50.0, 22.0 ],
					"saved_attribute_attributes" : 					{
						"valueof" : 						{
							"parameter_longname" : "number[11]",
							"parameter_mmax" : 29.0,
							"parameter_modmode" : 0,
							"parameter_osc_name" : "<default>",
							"parameter_shortname" : "number[11]",
							"parameter_type" : 0
						}

					}
,
					"varname" : "number[11]"
				}

			}
, 			{
				"box" : 				{
					"format" : 6,
					"id" : "obj-112",
					"maxclass" : "flonum",
					"minimum" : 0.0,
					"numinlets" : 1,
					"numoutlets" : 2,
					"outlettype" : [ "", "bang" ],
					"parameter_enable" : 1,
					"patching_rect" : [ 757.0, 128.5, 50.0, 22.0 ],
					"saved_attribute_attributes" : 					{
						"valueof" : 						{
							"parameter_invisible" : 1,
							"parameter_longname" : "number[12]",
							"parameter_modmode" : 0,
							"parameter_osc_name" : "<default>",
							"parameter_shortname" : "number[12]",
							"parameter_type" : 3
						}

					}
,
					"varname" : "number[12]"
				}

			}
, 			{
				"box" : 				{
					"format" : 6,
					"id" : "obj-40",
					"maxclass" : "flonum",
					"minimum" : 0.0,
					"numinlets" : 1,
					"numoutlets" : 2,
					"outlettype" : [ "", "bang" ],
					"parameter_enable" : 1,
					"patching_rect" : [ 705.0, 89.5, 50.0, 22.0 ],
					"saved_attribute_attributes" : 					{
						"valueof" : 						{
							"parameter_invisible" : 1,
							"parameter_longname" : "number[13]",
							"parameter_modmode" : 0,
							"parameter_osc_name" : "<default>",
							"parameter_shortname" : "number[13]",
							"parameter_type" : 3
						}

					}
,
					"varname" : "number[13]"
				}

			}
, 			{
				"box" : 				{
					"id" : "obj-46",
					"maxclass" : "newobj",
					"numinlets" : 3,
					"numoutlets" : 1,
					"outlettype" : [ "" ],
					"patching_rect" : [ 705.0, 195.5, 123.0, 22.0 ],
					"text" : "pak 0.2 5. 3."
				}

			}
, 			{
				"box" : 				{
					"id" : "obj-49",
					"maxclass" : "newobj",
					"numinlets" : 1,
					"numoutlets" : 1,
					"outlettype" : [ "" ],
					"patching_rect" : [ 705.0, 219.5, 103.0, 22.0 ],
					"text" : "prepend pparams"
				}

			}
, 			{
				"box" : 				{
					"id" : "obj-115",
					"maxclass" : "newobj",
					"numinlets" : 3,
					"numoutlets" : 1,
					"outlettype" : [ "" ],
					"patching_rect" : [ 727.0, 314.0, 123.0, 22.0 ],
					"text" : "pak 0. 0. 0."
				}

			}
, 			{
				"box" : 				{
					"attr" : "speed",
					"id" : "obj-52",
					"maxclass" : "attrui",
					"numinlets" : 1,
					"numoutlets" : 1,
					"outlettype" : [ "" ],
					"parameter_enable" : 0,
					"patching_rect" : [ 938.0, 281.0, 120.0, 22.0 ],
					"text_width" : 65.0
				}

			}
, 			{
				"box" : 				{
					"id" : "obj-53",
					"maxclass" : "newobj",
					"numinlets" : 1,
					"numoutlets" : 1,
					"outlettype" : [ "" ],
					"patching_rect" : [ 1024.0, 338.0, 82.0, 22.0 ],
					"text" : "prepend delta"
				}

			}
, 			{
				"box" : 				{
					"id" : "obj-54",
					"maxclass" : "newobj",
					"numinlets" : 1,
					"numoutlets" : 2,
					"outlettype" : [ "", "" ],
					"patching_rect" : [ 1024.0, 312.0, 118.0, 22.0 ],
					"text" : "jit.time @mode delta"
				}

			}
, 			{
				"box" : 				{
					"id" : "obj-116",
					"maxclass" : "newobj",
					"numinlets" : 1,
					"numoutlets" : 1,
					"outlettype" : [ "" ],
					"patching_rect" : [ 938.0, 338.0, 79.0, 22.0 ],
					"text" : "prepend time"
				}

			}
, 			{
				"box" : 				{
					"id" : "obj-117",
					"maxclass" : "newobj",
					"numinlets" : 1,
					"numoutlets" : 1,
					"outlettype" : [ "" ],
					"patching_rect" : [ 727.0, 379.0, 90.0, 22.0 ],
					"text" : "prepend param"
				}

			}
, 			{
				"box" : 				{
					"id" : "obj-59",
					"maxclass" : "newobj",
					"numinlets" : 1,
					"numoutlets" : 2,
					"outlettype" : [ "", "" ],
					"patching_rect" : [ 938.0, 312.0, 43.0, 22.0 ],
					"text" : "jit.time"
				}

			}
, 			{
				"box" : 				{
					"bubble" : 1,
					"bubbleusescolors" : 1,
					"id" : "obj-91",
					"linecount" : 2,
					"maxclass" : "comment",
					"numinlets" : 1,
					"numoutlets" : 0,
					"patching_rect" : [ 889.0, 706.0, 130.0, 37.0 ],
					"text" : "set the number of emitter particles"
				}

			}
, 			{
				"box" : 				{
					"attr" : "initcount",
					"id" : "obj-92",
					"maxclass" : "attrui",
					"numinlets" : 1,
					"numoutlets" : 1,
					"outlettype" : [ "" ],
					"parameter_enable" : 0,
					"patching_rect" : [ 742.0, 715.0, 116.0, 22.0 ],
					"text_width" : 69.0
				}

			}
, 			{
				"box" : 				{
					"color" : [ 0.992156862745098, 0.501960784313725, 0.031372549019608, 1.0 ],
					"id" : "obj-93",
					"maxclass" : "newobj",
					"numinlets" : 5,
					"numoutlets" : 2,
					"outlettype" : [ "", "" ],
					"patching_rect" : [ 727.0, 800.0, 467.000189661979675, 22.0 ],
					"text" : "jit.gl.tf 5 @shader binaryparts"
				}

			}
, 			{
				"box" : 				{
					"color" : [ 0.059509769082069, 0.501929938793182, 0.998454749584198, 1.0 ],
					"id" : "obj-15",
					"linecount" : 2,
					"maxclass" : "newobj",
					"numinlets" : 1,
					"numoutlets" : 2,
					"outlettype" : [ "jit_gl_buffer", "" ],
					"patching_rect" : [ 1174.0, 666.0, 174.5, 35.0 ],
					"text" : "jit.gl.buffer @type vertex_attr0 @outname TypeAgeID1"
				}

			}
, 			{
				"box" : 				{
					"color" : [ 0.059509769082069, 0.501929938793182, 0.998454749584198, 1.0 ],
					"id" : "obj-94",
					"maxclass" : "newobj",
					"numinlets" : 1,
					"numoutlets" : 2,
					"outlettype" : [ "jit_gl_buffer", "" ],
					"patching_rect" : [ 1043.5, 629.0, 169.0, 22.0 ],
					"text" : "jit.gl.buffer @type vertex_attr1"
				}

			}
, 			{
				"box" : 				{
					"color" : [ 0.059509769082069, 0.501929938793182, 0.998454749584198, 1.0 ],
					"id" : "obj-13",
					"linecount" : 2,
					"maxclass" : "newobj",
					"numinlets" : 1,
					"numoutlets" : 2,
					"outlettype" : [ "jit_gl_buffer", "" ],
					"patching_rect" : [ 877.0, 629.0, 147.0, 35.0 ],
					"text" : "jit.gl.buffer @type normal @outname Velocity1"
				}

			}
, 			{
				"box" : 				{
					"color" : [ 0.059509769082069, 0.501929938793182, 0.998454749584198, 1.0 ],
					"id" : "obj-9",
					"linecount" : 2,
					"maxclass" : "newobj",
					"numinlets" : 1,
					"numoutlets" : 2,
					"outlettype" : [ "jit_gl_buffer", "" ],
					"patching_rect" : [ 727.0, 629.0, 150.0, 35.0 ],
					"text" : "jit.gl.buffer @type position @outname Position1"
				}

			}
, 			{
				"box" : 				{
					"bubble" : 1,
					"bubbleusescolors" : 1,
					"id" : "obj-95",
					"linecount" : 2,
					"maxclass" : "comment",
					"numinlets" : 1,
					"numoutlets" : 0,
					"patching_rect" : [ 755.0, 448.0, 148.0, 37.0 ],
					"text" : "initialize the input matrices"
				}

			}
, 			{
				"box" : 				{
					"bubble" : 1,
					"bubbleside" : 3,
					"bubbleusescolors" : 1,
					"id" : "obj-24",
					"linecount" : 3,
					"maxclass" : "comment",
					"numinlets" : 1,
					"numoutlets" : 0,
					"patching_rect" : [ 1071.0, 444.0, 98.0, 51.0 ],
					"text" : "set the maximum particle count"
				}

			}
, 			{
				"box" : 				{
					"bubble" : 1,
					"bubbleusescolors" : 1,
					"id" : "obj-97",
					"linecount" : 2,
					"maxclass" : "comment",
					"numinlets" : 1,
					"numoutlets" : 0,
					"patching_rect" : [ 889.0, 747.0, 130.0, 37.0 ],
					"text" : "enable transform-feedback"
				}

			}
, 			{
				"box" : 				{
					"id" : "obj-98",
					"maxclass" : "message",
					"numinlets" : 2,
					"numoutlets" : 1,
					"outlettype" : [ "" ],
					"patching_rect" : [ 1174.0, 459.0, 55.0, 22.0 ],
					"text" : "1000000"
				}

			}
, 			{
				"box" : 				{
					"id" : "obj-64",
					"maxclass" : "newobj",
					"numinlets" : 2,
					"numoutlets" : 4,
					"outlettype" : [ "jit_matrix", "jit_matrix", "jit_matrix", "jit_matrix" ],
					"patcher" : 					{
						"fileversion" : 1,
						"appversion" : 						{
							"major" : 9,
							"minor" : 0,
							"revision" : 4,
							"architecture" : "x64",
							"modernui" : 1
						}
,
						"classnamespace" : "box",
						"rect" : [ 163.0, 361.0, 644.0, 461.0 ],
						"gridsize" : [ 15.0, 15.0 ],
						"boxes" : [ 							{
								"box" : 								{
									"id" : "obj-11",
									"maxclass" : "button",
									"numinlets" : 1,
									"numoutlets" : 1,
									"outlettype" : [ "bang" ],
									"parameter_enable" : 0,
									"patching_rect" : [ 339.0, 76.0, 24.0, 24.0 ]
								}

							}
, 							{
								"box" : 								{
									"comment" : "",
									"id" : "obj-8",
									"index" : 4,
									"maxclass" : "outlet",
									"numinlets" : 1,
									"numoutlets" : 0,
									"patching_rect" : [ 454.75, 399.166666666666686, 30.0, 30.0 ]
								}

							}
, 							{
								"box" : 								{
									"comment" : "",
									"id" : "obj-9",
									"index" : 2,
									"maxclass" : "inlet",
									"numinlets" : 0,
									"numoutlets" : 1,
									"outlettype" : [ "" ],
									"patching_rect" : [ 473.75, 39.999998666666684, 30.0, 30.0 ]
								}

							}
, 							{
								"box" : 								{
									"id" : "obj-7",
									"maxclass" : "newobj",
									"numinlets" : 2,
									"numoutlets" : 2,
									"outlettype" : [ "jit_matrix", "" ],
									"patching_rect" : [ 338.75, 218.0, 154.0, 22.0 ],
									"text" : "jit.pack 2 @jump 3 1"
								}

							}
, 							{
								"box" : 								{
									"id" : "obj-6",
									"maxclass" : "message",
									"numinlets" : 2,
									"numoutlets" : 1,
									"outlettype" : [ "" ],
									"patching_rect" : [ 473.75, 159.166666666666686, 29.5, 22.0 ],
									"text" : "1"
								}

							}
, 							{
								"box" : 								{
									"id" : "obj-2",
									"maxclass" : "newobj",
									"numinlets" : 1,
									"numoutlets" : 2,
									"outlettype" : [ "jit_matrix", "" ],
									"patching_rect" : [ 473.75, 183.166666666666686, 133.0, 22.0 ],
									"text" : "jit.matrix 1 float32 1000"
								}

							}
, 							{
								"box" : 								{
									"id" : "obj-4",
									"maxclass" : "newobj",
									"numinlets" : 1,
									"numoutlets" : 2,
									"outlettype" : [ "jit_matrix", "" ],
									"patching_rect" : [ 338.75, 183.166666666666686, 129.0, 22.0 ],
									"text" : "jit.noise 3 float32 1000"
								}

							}
, 							{
								"box" : 								{
									"comment" : "",
									"id" : "obj-1",
									"index" : 3,
									"maxclass" : "outlet",
									"numinlets" : 1,
									"numoutlets" : 0,
									"patching_rect" : [ 338.75, 399.166666666666686, 30.0, 30.0 ]
								}

							}
, 							{
								"box" : 								{
									"id" : "obj-5",
									"maxclass" : "newobj",
									"numinlets" : 1,
									"numoutlets" : 2,
									"outlettype" : [ "jit_matrix", "" ],
									"patching_rect" : [ 50.0, 318.166666666666686, 140.0, 22.0 ],
									"text" : "jit.map @map 0. 1. -1. 1."
								}

							}
, 							{
								"box" : 								{
									"id" : "obj-32",
									"maxclass" : "message",
									"numinlets" : 2,
									"numoutlets" : 1,
									"outlettype" : [ "" ],
									"patching_rect" : [ 200.75, 159.166666666666686, 29.5, 22.0 ],
									"text" : "0"
								}

							}
, 							{
								"box" : 								{
									"id" : "obj-24",
									"maxclass" : "newobj",
									"numinlets" : 1,
									"numoutlets" : 2,
									"outlettype" : [ "jit_matrix", "" ],
									"patching_rect" : [ 200.75, 183.166666666666686, 133.0, 22.0 ],
									"text" : "jit.matrix 3 float32 1000"
								}

							}
, 							{
								"box" : 								{
									"attr" : "dim",
									"id" : "obj-57",
									"maxclass" : "attrui",
									"numinlets" : 1,
									"numoutlets" : 1,
									"outlettype" : [ "" ],
									"parameter_enable" : 0,
									"patching_rect" : [ 473.75, 92.999998666666684, 118.5, 22.0 ],
									"text_width" : 57.0
								}

							}
, 							{
								"box" : 								{
									"id" : "obj-3",
									"maxclass" : "newobj",
									"numinlets" : 1,
									"numoutlets" : 2,
									"outlettype" : [ "jit_matrix", "" ],
									"patching_rect" : [ 50.0, 183.166666666666686, 129.0, 22.0 ],
									"text" : "jit.noise 3 float32 1000"
								}

							}
, 							{
								"box" : 								{
									"comment" : "",
									"id" : "obj-49",
									"index" : 1,
									"maxclass" : "inlet",
									"numinlets" : 0,
									"numoutlets" : 1,
									"outlettype" : [ "bang" ],
									"patching_rect" : [ 50.0, 39.999998666666684, 30.0, 30.0 ]
								}

							}
, 							{
								"box" : 								{
									"comment" : "",
									"id" : "obj-56",
									"index" : 1,
									"maxclass" : "outlet",
									"numinlets" : 1,
									"numoutlets" : 0,
									"patching_rect" : [ 50.0, 395.166666666666686, 30.0, 30.0 ]
								}

							}
, 							{
								"box" : 								{
									"comment" : "",
									"id" : "obj-63",
									"index" : 2,
									"maxclass" : "outlet",
									"numinlets" : 1,
									"numoutlets" : 0,
									"patching_rect" : [ 200.75, 399.166666666666686, 30.0, 30.0 ]
								}

							}
 ],
						"lines" : [ 							{
								"patchline" : 								{
									"destination" : [ "obj-4", 0 ],
									"source" : [ "obj-11", 0 ]
								}

							}
, 							{
								"patchline" : 								{
									"destination" : [ "obj-7", 1 ],
									"source" : [ "obj-2", 0 ]
								}

							}
, 							{
								"patchline" : 								{
									"destination" : [ "obj-63", 0 ],
									"order" : 1,
									"source" : [ "obj-24", 0 ]
								}

							}
, 							{
								"patchline" : 								{
									"destination" : [ "obj-8", 0 ],
									"order" : 0,
									"source" : [ "obj-24", 0 ]
								}

							}
, 							{
								"patchline" : 								{
									"destination" : [ "obj-5", 0 ],
									"source" : [ "obj-3", 0 ]
								}

							}
, 							{
								"patchline" : 								{
									"destination" : [ "obj-24", 0 ],
									"source" : [ "obj-32", 0 ]
								}

							}
, 							{
								"patchline" : 								{
									"destination" : [ "obj-7", 0 ],
									"source" : [ "obj-4", 0 ]
								}

							}
, 							{
								"patchline" : 								{
									"destination" : [ "obj-3", 0 ],
									"order" : 3,
									"source" : [ "obj-49", 0 ]
								}

							}
, 							{
								"patchline" : 								{
									"destination" : [ "obj-32", 0 ],
									"order" : 2,
									"source" : [ "obj-49", 0 ]
								}

							}
, 							{
								"patchline" : 								{
									"destination" : [ "obj-4", 0 ],
									"order" : 1,
									"source" : [ "obj-49", 0 ]
								}

							}
, 							{
								"patchline" : 								{
									"destination" : [ "obj-6", 0 ],
									"order" : 0,
									"source" : [ "obj-49", 0 ]
								}

							}
, 							{
								"patchline" : 								{
									"destination" : [ "obj-56", 0 ],
									"source" : [ "obj-5", 0 ]
								}

							}
, 							{
								"patchline" : 								{
									"destination" : [ "obj-2", 0 ],
									"order" : 0,
									"source" : [ "obj-57", 0 ]
								}

							}
, 							{
								"patchline" : 								{
									"destination" : [ "obj-24", 0 ],
									"order" : 2,
									"source" : [ "obj-57", 0 ]
								}

							}
, 							{
								"patchline" : 								{
									"destination" : [ "obj-3", 0 ],
									"order" : 3,
									"source" : [ "obj-57", 0 ]
								}

							}
, 							{
								"patchline" : 								{
									"destination" : [ "obj-4", 0 ],
									"order" : 1,
									"source" : [ "obj-57", 0 ]
								}

							}
, 							{
								"patchline" : 								{
									"destination" : [ "obj-2", 0 ],
									"source" : [ "obj-6", 0 ]
								}

							}
, 							{
								"patchline" : 								{
									"destination" : [ "obj-1", 0 ],
									"source" : [ "obj-7", 0 ]
								}

							}
, 							{
								"patchline" : 								{
									"destination" : [ "obj-57", 0 ],
									"source" : [ "obj-9", 0 ]
								}

							}
 ],
						"originid" : "pat-115"
					}
,
					"patching_rect" : [ 727.0, 513.0, 466.0, 22.0 ],
					"saved_object_attributes" : 					{
						"globalpatchername" : ""
					}
,
					"text" : "p input-matrices"
				}

			}
, 			{
				"box" : 				{
					"attr" : "enable",
					"id" : "obj-99",
					"maxclass" : "attrui",
					"numinlets" : 1,
					"numoutlets" : 1,
					"outlettype" : [ "" ],
					"parameter_enable" : 0,
					"patching_rect" : [ 742.0, 755.0, 116.0, 22.0 ],
					"text_width" : 69.0
				}

			}
, 			{
				"box" : 				{
					"id" : "obj-100",
					"maxclass" : "button",
					"numinlets" : 1,
					"numoutlets" : 1,
					"outlettype" : [ "bang" ],
					"parameter_enable" : 0,
					"patching_rect" : [ 727.0, 455.0, 24.0, 24.0 ]
				}

			}
, 			{
				"box" : 				{
					"id" : "obj-90",
					"maxclass" : "toggle",
					"numinlets" : 1,
					"numoutlets" : 1,
					"outlettype" : [ "int" ],
					"parameter_enable" : 0,
					"patching_rect" : [ 316.0, 132.0, 24.0, 24.0 ],
					"svg" : ""
				}

			}
, 			{
				"box" : 				{
					"filename" : "none",
					"id" : "obj-88",
					"maxclass" : "newobj",
					"numinlets" : 1,
					"numoutlets" : 2,
					"outlettype" : [ "", "" ],
					"patching_rect" : [ 727.0, 409.0, 178.0, 22.0 ],
					"text" : "jit.gl.shader @name binaryparts",
					"textfile" : 					{
						"text" : "<jittershader name=\"tf.particles.jxs\">\n\t<description>\"transform feedback based particle simulation\"</description>\n\t<param name=\"Position\" type=\"vec3\" state=\"POSITION\" />\n\t<param name=\"Velocity\" type=\"vec3\" state=\"NORMAL\" />\n\t<param name=\"Color\" type=\"vec4\" state=\"COLOR\" />\n\t<param name=\"TypeAgeID\" type=\"vec3\" state=\"VERTEX_ATTR0\" />\n\t<param name=\"Source\" type=\"vec4\" state=\"VERTEX_ATTR1\" />\n\t<param name=\"time\" type=\"float\" default=\"0.0\" />\n\t<param name=\"delta\" type=\"float\" default=\"0.0\" />\t\n\t<param name=\"offset\" type=\"vec3\" default=\"0. 0. 0.\" />\n\t<param name=\"pparams\" type=\"vec3\" default=\"0.2 5. 3.\" />\n\t\n\t<param name=\"vel_damp\" type=\"float\" default=\"0.99999\" />\n\t<param name=\"life_damp\" type=\"float\" default=\"0.001\" />\n\t<param name=\"noise_factor\" type=\"vec4\" default=\"0.5 0.2 0.2 0.2\" />\t\n\t\n\t<language name=\"glsl\" version=\"1.5\">\n\t\t<bind param=\"Position\" program=\"vp\" />\n\t\t<bind param=\"Velocity\" program=\"vp\" />\n\t\t<bind param=\"Color\" program=\"vp\" />\n\t\t<bind param=\"TypeAgeID\" program=\"vp\" />\n\t\t<bind param=\"Source\" program=\"vp\" />\n\t\t<bind param=\"time\" program=\"gp\" />\n\t\t<bind param=\"delta\" program=\"gp\" />\t\t\n\t\t<bind param=\"noise_tex\" program=\"gp\" />\n\t\t<bind param=\"offset\" program=\"gp\" />\n\t\t<bind param=\"pparams\" program=\"gp\" />\n\t\t\n\t\t<bind param=\"vel_damp\" program=\"gp\" />\n\t\t<bind param=\"life_damp\" program=\"gp\" />\n\t\t<bind param=\"noise_factor\" program=\"gp\" />\n\t\t\t\t\n\t\t<program name=\"vp\" type=\"vertex\"  >\n\t\t<![CDATA[\n#version 330 core \nin vec3 Position;\nin vec3 Velocity;\nin vec4 Color;\nin vec3 TypeAgeID;\nin vec3 Source;\n\nout vec3 Position0;\nout vec3 Velocity0;\nout vec4 Color0;\nout vec3 TypeAgeID0;\nout vec3 Source0;\n\nvoid main() {  \n\tPosition0 = Position;\n\tVelocity0 = Velocity;\n\tColor0 = Color;\n\tTypeAgeID0 = vec3(TypeAgeID.xy, gl_VertexID);\n\tSource0 = Source;\n}\n\t\t]]>\n\t\t</program>\n\t\t<program name=\"gp\" type=\"geometry\">\n\t\t<![CDATA[\n#version 330\n\nlayout(points) in;\nlayout(points) out;  \nlayout(max_vertices = 30) out;\n\nin vec3 Position0[];\nin vec3 Velocity0[];\nin vec4 Color0[];\nin vec3 TypeAgeID0[];\nin vec3 Source0[];\n\nout vec3 Position1;\nout vec3 Velocity1;\nout vec4 Color1;\nout vec3 TypeAgeID1;\n\nuniform float time;\nuniform float delta;\nuniform vec3 offset;\nuniform vec3 pparams;\n\nuniform float vel_damp;\nuniform float life_damp;\nuniform vec4 noise_factor;\n\n#define PARTICLE_TYPE_LAUNCHER 0.0f \n#define PARTICLE_TYPE_PARTICLE 1.0f \n\n\nvec3 mod289(vec3 x) {\n\treturn x - floor(x * (1.0 / 289.0)) * 289.0;\n}\n\nvec4 mod289(vec4 x) {\n\treturn x - floor(x * (1.0 / 289.0)) * 289.0;\n}\n\nvec4 permute(vec4 x) {\n\treturn mod289(((x*34.0)+1.0)*x);\n}\n\nvec4 taylorInvSqrt(vec4 r)\n{\n\treturn 1.79284291400159 - 0.85373472095314 * r;\n}\n\nfloat snoise(vec3 v) { \n\tconst vec2  C = vec2(1.0/6.0, 1.0/3.0) ;\n\tconst vec4  D = vec4(0.0, 0.5, 1.0, 2.0);\n\n\t// First corner\n\tvec3 i  = floor(v + dot(v, C.yyy) );\n\tvec3 x0 =   v - i + dot(i, C.xxx) ;\n\n\t// Other corners\n\tvec3 g = step(x0.yzx, x0.xyz);\n\tvec3 l = 1.0 - g;\n\tvec3 i1 = min( g.xyz, l.zxy );\n\tvec3 i2 = max( g.xyz, l.zxy );\n\n\t//   x0 = x0 - 0.0 + 0.0 * C.xxx;\n\t//   x1 = x0 - i1  + 1.0 * C.xxx;\n\t//   x2 = x0 - i2  + 2.0 * C.xxx;\n\t//   x3 = x0 - 1.0 + 3.0 * C.xxx;\n\tvec3 x1 = x0 - i1 + C.xxx;\n\tvec3 x2 = x0 - i2 + C.yyy; // 2.0*C.x = 1/3 = C.y\n\tvec3 x3 = x0 - D.yyy;      // -1.0+3.0*C.x = -0.5 = -D.y\n\n\t// Permutations\n\ti = mod289(i); \n\tvec4 p = permute( permute( permute( \n\t     i.z + vec4(0.0, i1.z, i2.z, 1.0 ))\n\t   + i.y + vec4(0.0, i1.y, i2.y, 1.0 )) \n\t   + i.x + vec4(0.0, i1.x, i2.x, 1.0 ));\n\n\t// Gradients: 7x7 points over a square, mapped onto an octahedron.\n\t// The ring size 17*17 = 289 is close to a multiple of 49 (49*6 = 294)\n\tfloat n_ = 0.142857142857; // 1.0/7.0\n\tvec3  ns = n_ * D.wyz - D.xzx;\n\n\tvec4 j = p - 49.0 * floor(p * ns.z * ns.z);  //  mod(p,7*7)\n\n\tvec4 x_ = floor(j * ns.z);\n\tvec4 y_ = floor(j - 7.0 * x_ );    // mod(j,N)\n\n\tvec4 x = x_ *ns.x + ns.yyyy;\n\tvec4 y = y_ *ns.x + ns.yyyy;\n\tvec4 h = 1.0 - abs(x) - abs(y);\n\n\tvec4 b0 = vec4( x.xy, y.xy );\n\tvec4 b1 = vec4( x.zw, y.zw );\n\n\t//vec4 s0 = vec4(lessThan(b0,0.0))*2.0 - 1.0;\n\t//vec4 s1 = vec4(lessThan(b1,0.0))*2.0 - 1.0;\n\tvec4 s0 = floor(b0)*2.0 + 1.0;\n\tvec4 s1 = floor(b1)*2.0 + 1.0;\n\tvec4 sh = -step(h, vec4(0.0));\n\n\tvec4 a0 = b0.xzyw + s0.xzyw*sh.xxyy ;\n\tvec4 a1 = b1.xzyw + s1.xzyw*sh.zzww ;\n\n\tvec3 p0 = vec3(a0.xy,h.x);\n\tvec3 p1 = vec3(a0.zw,h.y);\n\tvec3 p2 = vec3(a1.xy,h.z);\n\tvec3 p3 = vec3(a1.zw,h.w);\n\n\t//Normalise gradients\n\tvec4 norm = taylorInvSqrt(vec4(dot(p0,p0), dot(p1,p1), dot(p2, p2), dot(p3,p3)));\n\tp0 *= norm.x;\n\tp1 *= norm.y;\n\tp2 *= norm.z;\n\tp3 *= norm.w;\n\n\t// Mix final noise value\n\tvec4 m = max(0.6 - vec4(dot(x0,x0), dot(x1,x1), dot(x2,x2), dot(x3,x3)), 0.0);\n\tm = m * m;\n\treturn 42.0 * dot( m*m, vec4( dot(p0,x0), dot(p1,x1), \n\t                        dot(p2,x2), dot(p3,x3) ) );\n}\n\nvec3 snoiseVec3( vec3 x ){\n\n  float s  = snoise(vec3( x ));\n  float s1 = snoise(vec3( x.y - 19.1 , x.z + 33.4 , x.x + 47.2 ));\n  float s2 = snoise(vec3( x.z + 74.2 , x.x - 124.5 , x.y + 99.4 ));\n  vec3 c = vec3( s , s1 , s2 );\n  return c;\n\n}\n\n\nvec3 curlNoise( vec3 p ){\n  \n  const float e = .1;\n  vec3 dx = vec3( e   , 0.0 , 0.0 );\n  vec3 dy = vec3( 0.0 , e   , 0.0 );\n  vec3 dz = vec3( 0.0 , 0.0 , e   );\n\n  vec3 p_x0 = snoiseVec3( p - dx );\n  vec3 p_x1 = snoiseVec3( p + dx );\n  vec3 p_y0 = snoiseVec3( p - dy );\n  vec3 p_y1 = snoiseVec3( p + dy );\n  vec3 p_z0 = snoiseVec3( p - dz );\n  vec3 p_z1 = snoiseVec3( p + dz );\n\n  float x = p_y1.z - p_y0.z - p_z1.y + p_z0.y;\n  float y = p_z1.x - p_z0.x - p_x1.z + p_x0.z;\n  float z = p_x1.y - p_x0.y - p_y1.x + p_y0.x;\n\n  const float divisor = 1.0 / ( 2.0 * e );\n  return normalize( vec3( x , y , z ) * divisor );\n\n}\n\nvoid main() \n{\n\tfloat launcherLifetime = pparams.x;\n\tfloat lifetime = pparams.y; \n\tfloat emitCount = 1;\n\n\tfloat type = TypeAgeID0[0].x;\n\tfloat age = TypeAgeID0[0].y + (delta);\n\tfloat id = TypeAgeID0[0].z;\n\tvec3 src = Source0[0];\n\t//vec4 col = Color0[0];\n\t\n\tfloat col = pparams.z > 0 ? 1.0 - abs(1 - 2 * (age / lifetime)) : 1.0 - (age / lifetime);\n\t\n\tColor1 = vec4(col);\n\t\n\t\n\tif(src.z > 0) {\n\t\tvec3 pos = src + offset;\n\t\tif (age >= launcherLifetime) {\n\t\t\tfor (int i = 0; i < emitCount; i++) {\n\t\t\t\tPosition1 = pos;\n\t\t\t\t\n\t\t\t\tvec3 noise = delta * noise_factor.x * curlNoise(Position1.rgb * noise_factor.y + time * noise_factor.z);\n\t\t\t\tVelocity1 = (Velocity0[0] + noise * noise_factor.w) * vel_damp;\n\t\t\n\t\t\t\tTypeAgeID1 = vec3(PARTICLE_TYPE_PARTICLE, 0, id);\n\t\t\t\t\n\t\t\t\tEmitVertex();  \n\t\t\t\tEndPrimitive();\n\t\t\t}\n\t\t\tage = 0;\n\t\t}\n\n\t\tPosition1 = Position0[0];\n\t\tVelocity1 = Velocity0[0];\n\t\tTypeAgeID1 = vec3(type, age, id);\n\n\t\tEmitVertex();\n\t\tEndPrimitive(); \n\t}\n\telse if(age < lifetime) {\n\t\t\n\t\tvec3 deltaP = delta * Velocity0[0]; \n\t\tPosition1 = Position0[0] + deltaP; \n\t\t\n\t\tvec3 noise = delta * noise_factor.x * curlNoise(Position1.rgb * noise_factor.y + time * noise_factor.z);\n\t\tVelocity1 = (Velocity0[0] + noise * noise_factor.w) * vel_damp;\n\t\t\n\t\tTypeAgeID1 = vec3(type, age, id);\n\n\t\tEmitVertex();\n\t\tEndPrimitive();\n\t}\n\telse {\n\t\tPosition1 = vec3(-1000, -1000, 0);\n\t\tVelocity1 = Velocity0[0];\n\t\tTypeAgeID1 = vec3(type, age, id);\n\n\t\tEmitVertex();\n\t\tEndPrimitive();\n\t}\n} \n\t\t]]>\n\t\t</program>\n\t\t<program name=\"fp\" type=\"fragment\"  >\n\t\t<![CDATA[\n#version 330 core\nvoid main() \n{\n}\n\t\t]]>\n\t\t</program>\n\t</language>\n</jittershader>",
						"filename" : "none",
						"flags" : 0,
						"embed" : 1,
						"autowatch" : 1
					}

				}

			}
, 			{
				"box" : 				{
					"id" : "obj-37",
					"maxclass" : "newobj",
					"numinlets" : 1,
					"numoutlets" : 1,
					"outlettype" : [ "" ],
					"patching_rect" : [ 49.0, 423.0, 75.0, 22.0 ],
					"text" : "prepend dim"
				}

			}
, 			{
				"box" : 				{
					"id" : "obj-36",
					"maxclass" : "number",
					"numinlets" : 1,
					"numoutlets" : 2,
					"outlettype" : [ "", "bang" ],
					"parameter_enable" : 0,
					"patching_rect" : [ 49.0, 365.0, 50.0, 22.0 ]
				}

			}
, 			{
				"box" : 				{
					"id" : "obj-1",
					"maxclass" : "newobj",
					"numinlets" : 2,
					"numoutlets" : 1,
					"outlettype" : [ "" ],
					"patching_rect" : [ 49.0, 399.0, 75.0, 22.0 ],
					"text" : "pak 320 240"
				}

			}
, 			{
				"box" : 				{
					"id" : "obj-39",
					"maxclass" : "message",
					"numinlets" : 2,
					"numoutlets" : 1,
					"outlettype" : [ "" ],
					"patching_rect" : [ 128.0, 109.0, 35.0, 22.0 ],
					"text" : "clear"
				}

			}
, 			{
				"box" : 				{
					"id" : "obj-35",
					"maxclass" : "newobj",
					"numinlets" : 1,
					"numoutlets" : 2,
					"outlettype" : [ "jit_gl_texture", "" ],
					"patching_rect" : [ 49.0, 455.0, 207.0, 22.0 ],
					"text" : "jit.gl.texture @adapt 0 @dim 320 240"
				}

			}
, 			{
				"box" : 				{
					"id" : "obj-34",
					"maxclass" : "newobj",
					"numinlets" : 1,
					"numoutlets" : 2,
					"outlettype" : [ "jit_matrix", "" ],
					"patching_rect" : [ 49.0, 479.0, 89.0, 22.0 ],
					"text" : "jit.gl.asyncread"
				}

			}
, 			{
				"box" : 				{
					"format" : 6,
					"id" : "obj-26",
					"maxclass" : "flonum",
					"numinlets" : 1,
					"numoutlets" : 2,
					"outlettype" : [ "", "bang" ],
					"parameter_enable" : 0,
					"patching_rect" : [ 140.0, 479.0, 50.0, 22.0 ]
				}

			}
, 			{
				"box" : 				{
					"id" : "obj-29",
					"maxclass" : "newobj",
					"numinlets" : 3,
					"numoutlets" : 1,
					"outlettype" : [ "jit_matrix" ],
					"patcher" : 					{
						"fileversion" : 1,
						"appversion" : 						{
							"major" : 9,
							"minor" : 0,
							"revision" : 4,
							"architecture" : "x64",
							"modernui" : 1
						}
,
						"classnamespace" : "box",
						"rect" : [ 501.0, 234.0, 608.0, 420.0 ],
						"gridsize" : [ 15.0, 15.0 ],
						"boxes" : [ 							{
								"box" : 								{
									"id" : "obj-5",
									"maxclass" : "newobj",
									"numinlets" : 1,
									"numoutlets" : 1,
									"outlettype" : [ "" ],
									"patching_rect" : [ 448.0, 80.0, 75.0, 22.0 ],
									"text" : "prepend dim"
								}

							}
, 							{
								"box" : 								{
									"comment" : "",
									"id" : "obj-3",
									"index" : 3,
									"maxclass" : "inlet",
									"numinlets" : 0,
									"numoutlets" : 1,
									"outlettype" : [ "" ],
									"patching_rect" : [ 448.0, 40.0, 30.0, 30.0 ]
								}

							}
, 							{
								"box" : 								{
									"comment" : "",
									"id" : "obj-2",
									"index" : 1,
									"maxclass" : "outlet",
									"numinlets" : 1,
									"numoutlets" : 0,
									"patching_rect" : [ 50.0, 351.0, 30.0, 30.0 ]
								}

							}
, 							{
								"box" : 								{
									"id" : "obj-1",
									"maxclass" : "newobj",
									"numinlets" : 1,
									"numoutlets" : 1,
									"outlettype" : [ "bang" ],
									"patching_rect" : [ 87.0, 243.0, 22.0, 22.0 ],
									"text" : "t b"
								}

							}
, 							{
								"box" : 								{
									"attr" : "amt",
									"id" : "obj-37",
									"maxclass" : "attrui",
									"numinlets" : 1,
									"numoutlets" : 1,
									"outlettype" : [ "" ],
									"parameter_enable" : 0,
									"patching_rect" : [ 225.0, 80.0, 111.0, 22.0 ],
									"text_width" : 60.0
								}

							}
, 							{
								"box" : 								{
									"comment" : "",
									"id" : "obj-35",
									"index" : 2,
									"maxclass" : "inlet",
									"numinlets" : 0,
									"numoutlets" : 1,
									"outlettype" : [ "" ],
									"patching_rect" : [ 225.0, 40.0, 30.0, 30.0 ]
								}

							}
, 							{
								"box" : 								{
									"id" : "obj-23",
									"maxclass" : "newobj",
									"numinlets" : 1,
									"numoutlets" : 2,
									"outlettype" : [ "jit_matrix", "" ],
									"patching_rect" : [ 50.0, 116.0, 149.0, 22.0 ],
									"text" : "jit.matrix 3 float32 320 240"
								}

							}
, 							{
								"box" : 								{
									"id" : "obj-8",
									"maxclass" : "newobj",
									"numinlets" : 1,
									"numoutlets" : 2,
									"outlettype" : [ "jit_matrix", "" ],
									"patching_rect" : [ 50.0, 165.0, 280.0, 22.0 ],
									"text" : "jit.rota @zoom_y -1. @zoom_x -1. @boundmode 2"
								}

							}
, 							{
								"box" : 								{
									"id" : "obj-7",
									"maxclass" : "newobj",
									"numinlets" : 1,
									"numoutlets" : 2,
									"outlettype" : [ "jit_matrix", "" ],
									"patching_rect" : [ 87.0, 300.0, 107.0, 22.0 ],
									"text" : "jit.pack 1 @jump 3"
								}

							}
, 							{
								"box" : 								{
									"id" : "obj-11",
									"maxclass" : "newobj",
									"numinlets" : 2,
									"numoutlets" : 2,
									"outlettype" : [ "jit_matrix", "" ],
									"patcher" : 									{
										"fileversion" : 1,
										"appversion" : 										{
											"major" : 9,
											"minor" : 0,
											"revision" : 4,
											"architecture" : "x64",
											"modernui" : 1
										}
,
										"classnamespace" : "jit.gen",
										"rect" : [ 400.0, 207.0, 424.0, 475.0 ],
										"gridsize" : [ 15.0, 15.0 ],
										"boxes" : [ 											{
												"box" : 												{
													"id" : "obj-19",
													"maxclass" : "newobj",
													"numinlets" : 0,
													"numoutlets" : 1,
													"outlettype" : [ "" ],
													"patching_rect" : [ 247.0, 297.0, 76.0, 22.0 ],
													"text" : "param amt 1"
												}

											}
, 											{
												"box" : 												{
													"id" : "obj-18",
													"maxclass" : "newobj",
													"numinlets" : 1,
													"numoutlets" : 1,
													"outlettype" : [ "" ],
													"patching_rect" : [ 190.5, 297.0, 37.0, 22.0 ],
													"text" : "* amt"
												}

											}
, 											{
												"box" : 												{
													"id" : "obj-17",
													"maxclass" : "newobj",
													"numinlets" : 2,
													"numoutlets" : 1,
													"outlettype" : [ "" ],
													"patching_rect" : [ 139.0, 354.0, 70.5, 22.0 ],
													"text" : "concat xy z"
												}

											}
, 											{
												"box" : 												{
													"fontname" : "Arial",
													"fontsize" : 12.0,
													"id" : "obj-16",
													"maxclass" : "newobj",
													"numinlets" : 2,
													"numoutlets" : 1,
													"outlettype" : [ "" ],
													"patching_rect" : [ 190.5, 328.0, 32.5, 22.0 ],
													"text" : "+"
												}

											}
, 											{
												"box" : 												{
													"id" : "obj-15",
													"maxclass" : "newobj",
													"numinlets" : 1,
													"numoutlets" : 1,
													"outlettype" : [ "" ],
													"patching_rect" : [ 204.0, 206.0, 41.0, 22.0 ],
													"text" : "swiz z"
												}

											}
, 											{
												"box" : 												{
													"id" : "obj-14",
													"maxclass" : "newobj",
													"numinlets" : 1,
													"numoutlets" : 1,
													"outlettype" : [ "" ],
													"patching_rect" : [ 139.0, 206.0, 47.0, 22.0 ],
													"text" : "swiz xy"
												}

											}
, 											{
												"box" : 												{
													"fontname" : "Arial",
													"fontsize" : 12.0,
													"id" : "obj-11",
													"maxclass" : "newobj",
													"numinlets" : 2,
													"numoutlets" : 1,
													"outlettype" : [ "" ],
													"patching_rect" : [ 50.0, 173.0, 32.5, 22.0 ],
													"text" : "+"
												}

											}
, 											{
												"box" : 												{
													"fontname" : "Arial",
													"fontsize" : 12.0,
													"id" : "obj-10",
													"maxclass" : "newobj",
													"numinlets" : 2,
													"numoutlets" : 1,
													"outlettype" : [ "" ],
													"patching_rect" : [ 50.0, 143.0, 32.5, 22.0 ],
													"text" : "+"
												}

											}
, 											{
												"box" : 												{
													"fontname" : "Arial",
													"fontsize" : 12.0,
													"id" : "obj-7",
													"maxclass" : "newobj",
													"numinlets" : 1,
													"numoutlets" : 1,
													"outlettype" : [ "" ],
													"patching_rect" : [ 148.0, 109.0, 45.0, 22.0 ],
													"text" : "swiz b"
												}

											}
, 											{
												"box" : 												{
													"fontname" : "Arial",
													"fontsize" : 12.0,
													"id" : "obj-6",
													"maxclass" : "newobj",
													"numinlets" : 1,
													"numoutlets" : 1,
													"outlettype" : [ "" ],
													"patching_rect" : [ 98.0, 109.0, 45.0, 22.0 ],
													"text" : "swiz g"
												}

											}
, 											{
												"box" : 												{
													"fontname" : "Arial",
													"fontsize" : 12.0,
													"id" : "obj-9",
													"maxclass" : "newobj",
													"numinlets" : 1,
													"numoutlets" : 1,
													"outlettype" : [ "" ],
													"patching_rect" : [ 50.0, 109.0, 42.0, 22.0 ],
													"text" : "swiz r"
												}

											}
, 											{
												"box" : 												{
													"fontname" : "Arial",
													"fontsize" : 12.0,
													"id" : "obj-12",
													"maxclass" : "newobj",
													"numinlets" : 2,
													"numoutlets" : 1,
													"outlettype" : [ "" ],
													"patching_rect" : [ 50.0, 70.0, 32.5, 22.0 ],
													"text" : "*"
												}

											}
, 											{
												"box" : 												{
													"fontname" : "Arial",
													"fontsize" : 12.0,
													"id" : "obj-13",
													"maxclass" : "newobj",
													"numinlets" : 0,
													"numoutlets" : 1,
													"outlettype" : [ "" ],
													"patching_rect" : [ 91.0, 35.0, 192.0, 22.0 ],
													"text" : "param luma 0.299 0.587 0.114 0."
												}

											}
, 											{
												"box" : 												{
													"id" : "obj-1",
													"maxclass" : "newobj",
													"numinlets" : 0,
													"numoutlets" : 1,
													"outlettype" : [ "" ],
													"patching_rect" : [ 50.0, 35.0, 28.0, 22.0 ],
													"text" : "in 1"
												}

											}
, 											{
												"box" : 												{
													"id" : "obj-2",
													"maxclass" : "newobj",
													"numinlets" : 0,
													"numoutlets" : 1,
													"outlettype" : [ "" ],
													"patching_rect" : [ 139.0, 173.0, 28.0, 22.0 ],
													"text" : "in 2"
												}

											}
, 											{
												"box" : 												{
													"id" : "obj-4",
													"maxclass" : "newobj",
													"numinlets" : 1,
													"numoutlets" : 0,
													"patching_rect" : [ 139.0, 404.0, 35.0, 22.0 ],
													"text" : "out 1"
												}

											}
 ],
										"lines" : [ 											{
												"patchline" : 												{
													"destination" : [ "obj-12", 0 ],
													"source" : [ "obj-1", 0 ]
												}

											}
, 											{
												"patchline" : 												{
													"destination" : [ "obj-11", 0 ],
													"source" : [ "obj-10", 0 ]
												}

											}
, 											{
												"patchline" : 												{
													"destination" : [ "obj-18", 0 ],
													"source" : [ "obj-11", 0 ]
												}

											}
, 											{
												"patchline" : 												{
													"destination" : [ "obj-6", 0 ],
													"order" : 1,
													"source" : [ "obj-12", 0 ]
												}

											}
, 											{
												"patchline" : 												{
													"destination" : [ "obj-7", 0 ],
													"order" : 0,
													"source" : [ "obj-12", 0 ]
												}

											}
, 											{
												"patchline" : 												{
													"destination" : [ "obj-9", 0 ],
													"order" : 2,
													"source" : [ "obj-12", 0 ]
												}

											}
, 											{
												"patchline" : 												{
													"destination" : [ "obj-12", 1 ],
													"source" : [ "obj-13", 0 ]
												}

											}
, 											{
												"patchline" : 												{
													"destination" : [ "obj-17", 0 ],
													"source" : [ "obj-14", 0 ]
												}

											}
, 											{
												"patchline" : 												{
													"destination" : [ "obj-16", 1 ],
													"source" : [ "obj-15", 0 ]
												}

											}
, 											{
												"patchline" : 												{
													"destination" : [ "obj-17", 1 ],
													"source" : [ "obj-16", 0 ]
												}

											}
, 											{
												"patchline" : 												{
													"destination" : [ "obj-4", 0 ],
													"source" : [ "obj-17", 0 ]
												}

											}
, 											{
												"patchline" : 												{
													"destination" : [ "obj-16", 0 ],
													"source" : [ "obj-18", 0 ]
												}

											}
, 											{
												"patchline" : 												{
													"destination" : [ "obj-14", 0 ],
													"order" : 1,
													"source" : [ "obj-2", 0 ]
												}

											}
, 											{
												"patchline" : 												{
													"destination" : [ "obj-15", 0 ],
													"order" : 0,
													"source" : [ "obj-2", 0 ]
												}

											}
, 											{
												"patchline" : 												{
													"destination" : [ "obj-10", 1 ],
													"source" : [ "obj-6", 0 ]
												}

											}
, 											{
												"patchline" : 												{
													"destination" : [ "obj-11", 1 ],
													"source" : [ "obj-7", 0 ]
												}

											}
, 											{
												"patchline" : 												{
													"destination" : [ "obj-10", 0 ],
													"source" : [ "obj-9", 0 ]
												}

											}
 ],
										"originid" : "pat-119"
									}
,
									"patching_rect" : [ 50.0, 324.0, 56.0, 22.0 ],
									"text" : "jit.gen"
								}

							}
, 							{
								"box" : 								{
									"id" : "obj-9",
									"maxclass" : "newobj",
									"numinlets" : 1,
									"numoutlets" : 2,
									"outlettype" : [ "jit_matrix", "" ],
									"patching_rect" : [ 87.0, 276.0, 417.0, 22.0 ],
									"text" : "jit.gl.gridshape @shape plane @matrixoutput 1 @dim 320 240 @automatic 0"
								}

							}
, 							{
								"box" : 								{
									"comment" : "",
									"id" : "obj-12",
									"index" : 1,
									"maxclass" : "inlet",
									"numinlets" : 0,
									"numoutlets" : 1,
									"outlettype" : [ "jit_matrix" ],
									"patching_rect" : [ 50.0, 40.0, 30.0, 30.0 ]
								}

							}
 ],
						"lines" : [ 							{
								"patchline" : 								{
									"destination" : [ "obj-9", 0 ],
									"source" : [ "obj-1", 0 ]
								}

							}
, 							{
								"patchline" : 								{
									"destination" : [ "obj-2", 0 ],
									"source" : [ "obj-11", 0 ]
								}

							}
, 							{
								"patchline" : 								{
									"destination" : [ "obj-1", 0 ],
									"order" : 0,
									"source" : [ "obj-12", 0 ]
								}

							}
, 							{
								"patchline" : 								{
									"destination" : [ "obj-23", 0 ],
									"order" : 1,
									"source" : [ "obj-12", 0 ]
								}

							}
, 							{
								"patchline" : 								{
									"destination" : [ "obj-8", 0 ],
									"source" : [ "obj-23", 0 ]
								}

							}
, 							{
								"patchline" : 								{
									"destination" : [ "obj-5", 0 ],
									"source" : [ "obj-3", 0 ]
								}

							}
, 							{
								"patchline" : 								{
									"destination" : [ "obj-37", 0 ],
									"source" : [ "obj-35", 0 ]
								}

							}
, 							{
								"patchline" : 								{
									"destination" : [ "obj-11", 0 ],
									"source" : [ "obj-37", 0 ]
								}

							}
, 							{
								"patchline" : 								{
									"destination" : [ "obj-23", 0 ],
									"order" : 1,
									"source" : [ "obj-5", 0 ]
								}

							}
, 							{
								"patchline" : 								{
									"destination" : [ "obj-9", 0 ],
									"order" : 0,
									"source" : [ "obj-5", 0 ]
								}

							}
, 							{
								"patchline" : 								{
									"destination" : [ "obj-11", 1 ],
									"source" : [ "obj-7", 0 ]
								}

							}
, 							{
								"patchline" : 								{
									"destination" : [ "obj-11", 0 ],
									"source" : [ "obj-8", 0 ]
								}

							}
, 							{
								"patchline" : 								{
									"destination" : [ "obj-7", 0 ],
									"source" : [ "obj-9", 0 ]
								}

							}
 ],
						"originid" : "pat-117"
					}
,
					"patching_rect" : [ 49.0, 547.0, 201.0, 22.0 ],
					"saved_object_attributes" : 					{
						"globalpatchername" : ""
					}
,
					"text" : "p convert-luma-to-z-displacement"
				}

			}
, 			{
				"box" : 				{
					"attr" : "point_mode",
					"id" : "obj-30",
					"maxclass" : "attrui",
					"numinlets" : 1,
					"numoutlets" : 1,
					"outlettype" : [ "" ],
					"parameter_enable" : 0,
					"patching_rect" : [ 1132.0, 883.0, 150.0, 22.0 ],
					"text_width" : 88.0
				}

			}
, 			{
				"box" : 				{
					"fontname" : "Arial",
					"fontsize" : 13.0,
					"id" : "obj-33",
					"maxclass" : "newobj",
					"numinlets" : 9,
					"numoutlets" : 2,
					"outlettype" : [ "", "" ],
					"patching_rect" : [ 727.0, 865.0, 365.0, 23.0 ],
					"text" : "jit.gl.mesh @draw_mode points @point_size 5 @color 1 1 1 1"
				}

			}
, 			{
				"box" : 				{
					"id" : "obj-22",
					"maxclass" : "newobj",
					"numinlets" : 1,
					"numoutlets" : 1,
					"outlettype" : [ "bang" ],
					"patching_rect" : [ 331.0, 283.0, 58.0, 22.0 ],
					"text" : "loadbang"
				}

			}
, 			{
				"box" : 				{
					"id" : "obj-21",
					"maxclass" : "message",
					"numinlets" : 2,
					"numoutlets" : 1,
					"outlettype" : [ "" ],
					"patching_rect" : [ 277.0, 159.0, 34.0, 22.0 ],
					"text" : "vol 0"
				}

			}
, 			{
				"box" : 				{
					"id" : "obj-19",
					"maxclass" : "newobj",
					"numinlets" : 1,
					"numoutlets" : 2,
					"outlettype" : [ "jit_gl_texture", "" ],
					"patcher" : 					{
						"fileversion" : 1,
						"appversion" : 						{
							"major" : 9,
							"minor" : 0,
							"revision" : 4,
							"architecture" : "x64",
							"modernui" : 1
						}
,
						"classnamespace" : "jit.gen",
						"rect" : [ 84.0, 131.0, 600.0, 450.0 ],
						"gridsize" : [ 15.0, 15.0 ],
						"boxes" : [ 							{
								"box" : 								{
									"id" : "obj-1",
									"maxclass" : "newobj",
									"numinlets" : 0,
									"numoutlets" : 1,
									"outlettype" : [ "" ],
									"patching_rect" : [ 50.0, 14.0, 28.0, 22.0 ],
									"text" : "in 1"
								}

							}
, 							{
								"box" : 								{
									"id" : "obj-3",
									"maxclass" : "newobj",
									"numinlets" : 1,
									"numoutlets" : 1,
									"outlettype" : [ "" ],
									"patching_rect" : [ 176.0, 149.0, 29.0, 22.0 ],
									"text" : "> 0."
								}

							}
, 							{
								"box" : 								{
									"id" : "obj-4",
									"maxclass" : "newobj",
									"numinlets" : 1,
									"numoutlets" : 0,
									"patching_rect" : [ 184.0, 351.0, 35.0, 22.0 ],
									"text" : "out 1"
								}

							}
 ],
						"lines" : [ 							{
								"patchline" : 								{
									"destination" : [ "obj-3", 0 ],
									"source" : [ "obj-1", 0 ]
								}

							}
, 							{
								"patchline" : 								{
									"destination" : [ "obj-4", 0 ],
									"source" : [ "obj-3", 0 ]
								}

							}
 ],
						"originid" : "pat-121"
					}
,
					"patching_rect" : [ 128.0, 423.0, 49.0, 22.0 ],
					"text" : "jit.gl.pix"
				}

			}
, 			{
				"box" : 				{
					"id" : "obj-18",
					"maxclass" : "newobj",
					"numinlets" : 1,
					"numoutlets" : 1,
					"outlettype" : [ "" ],
					"patching_rect" : [ 150.0, 355.0, 90.0, 22.0 ],
					"text" : "prepend param"
				}

			}
, 			{
				"box" : 				{
					"id" : "obj-17",
					"maxclass" : "newobj",
					"numinlets" : 1,
					"numoutlets" : 1,
					"outlettype" : [ "" ],
					"patching_rect" : [ 150.0, 331.0, 82.0, 22.0 ],
					"text" : "prepend color"
				}

			}
, 			{
				"box" : 				{
					"id" : "obj-16",
					"maxclass" : "message",
					"numinlets" : 2,
					"numoutlets" : 1,
					"outlettype" : [ "" ],
					"patching_rect" : [ 331.0, 309.0, 216.0, 22.0 ],
					"text" : "0.05098 0.639216 0.145098 1."
				}

			}
, 			{
				"box" : 				{
					"id" : "obj-14",
					"maxclass" : "suckah",
					"numinlets" : 1,
					"numoutlets" : 1,
					"outlettype" : [ "" ],
					"patching_rect" : [ 511.0, 205.0, 77.0, 61.0 ]
				}

			}
, 			{
				"box" : 				{
					"id" : "obj-6",
					"maxclass" : "newobj",
					"numinlets" : 1,
					"numoutlets" : 3,
					"outlettype" : [ "jit_matrix", "bang", "" ],
					"patching_rect" : [ 128.0, 133.0, 175.0, 22.0 ],
					"text" : "jit.world @enable 1 @floating 1"
				}

			}
, 			{
				"box" : 				{
					"attr" : "output_texture",
					"id" : "obj-5",
					"maxclass" : "attrui",
					"numinlets" : 1,
					"numoutlets" : 1,
					"outlettype" : [ "" ],
					"parameter_enable" : 0,
					"patching_rect" : [ 128.0, 159.0, 150.0, 22.0 ]
				}

			}
, 			{
				"box" : 				{
					"filename" : "co.chromakey.jxs",
					"id" : "obj-3",
					"maxclass" : "newobj",
					"numinlets" : 2,
					"numoutlets" : 2,
					"outlettype" : [ "jit_gl_texture", "" ],
					"patching_rect" : [ 128.0, 399.0, 400.0, 22.0 ],
					"text" : "jit.fx.co.chromakey @fade 0. @binary 1. @invert 0. @mode 1. @tol 0.079",
					"textfile" : 					{
						"filename" : "co.chromakey.jxs",
						"flags" : 0,
						"embed" : 0,
						"autowatch" : 1
					}

				}

			}
, 			{
				"box" : 				{
					"clipheight" : 70.0,
					"data" : 					{
						"clips" : [ 							{
								"absolutepath" : "shadertoy_samurai_video.mp4",
								"filename" : "shadertoy_samurai_video.mp4",
								"filekind" : "moviefile",
								"id" : "u438001123",
								"loop" : 1,
								"content_state" : 								{
									"loop" : 1,
									"vol" : 0
								}

							}
 ]
					}
,
					"drawto" : "",
					"id" : "obj-2",
					"loop" : 1,
					"maxclass" : "jit.playlist",
					"numinlets" : 1,
					"numoutlets" : 3,
					"outlettype" : [ "jit_gl_texture", "", "dictionary" ],
					"output_texture" : 1,
					"parameter_enable" : 0,
					"patching_rect" : [ 128.0, 195.0, 460.0, 71.0 ],
					"saved_attribute_attributes" : 					{
						"candicane2" : 						{
							"expression" : ""
						}
,
						"candicane3" : 						{
							"expression" : ""
						}
,
						"candicane4" : 						{
							"expression" : ""
						}
,
						"candicane5" : 						{
							"expression" : ""
						}
,
						"candicane6" : 						{
							"expression" : ""
						}
,
						"candicane7" : 						{
							"expression" : ""
						}
,
						"candicane8" : 						{
							"expression" : ""
						}

					}

				}

			}
, 			{
				"box" : 				{
					"background" : 1,
					"bgcolor" : [ 1.0, 0.788235, 0.470588, 1.0 ],
					"fontface" : 1,
					"hint" : "",
					"id" : "obj-12",
					"ignoreclick" : 1,
					"legacytextcolor" : 1,
					"maxclass" : "textbutton",
					"numinlets" : 1,
					"numoutlets" : 3,
					"outlettype" : [ "", "", "int" ],
					"parameter_enable" : 0,
					"patching_rect" : [ 862.0, 756.0, 20.0, 20.0 ],
					"rounded" : 60.0,
					"text" : "5",
					"textcolor" : [ 0.34902, 0.34902, 0.34902, 1.0 ]
				}

			}
, 			{
				"box" : 				{
					"background" : 1,
					"bgcolor" : [ 1.0, 0.788235, 0.470588, 1.0 ],
					"fontface" : 1,
					"hint" : "",
					"id" : "obj-11",
					"ignoreclick" : 1,
					"legacytextcolor" : 1,
					"maxclass" : "textbutton",
					"numinlets" : 1,
					"numoutlets" : 3,
					"outlettype" : [ "", "", "int" ],
					"parameter_enable" : 0,
					"patching_rect" : [ 862.0, 715.0, 20.0, 20.0 ],
					"rounded" : 60.0,
					"text" : "4",
					"textcolor" : [ 0.34902, 0.34902, 0.34902, 1.0 ]
				}

			}
, 			{
				"box" : 				{
					"background" : 1,
					"bgcolor" : [ 1.0, 0.788235, 0.470588, 1.0 ],
					"fontface" : 1,
					"hint" : "",
					"id" : "obj-7",
					"ignoreclick" : 1,
					"legacytextcolor" : 1,
					"maxclass" : "textbutton",
					"numinlets" : 1,
					"numoutlets" : 3,
					"outlettype" : [ "", "", "int" ],
					"parameter_enable" : 0,
					"patching_rect" : [ 705.0, 459.0, 20.0, 20.0 ],
					"rounded" : 60.0,
					"text" : "3",
					"textcolor" : [ 0.34902, 0.34902, 0.34902, 1.0 ]
				}

			}
, 			{
				"box" : 				{
					"background" : 1,
					"bgcolor" : [ 1.0, 0.788235, 0.470588, 1.0 ],
					"fontface" : 1,
					"hint" : "",
					"id" : "obj-101",
					"ignoreclick" : 1,
					"legacytextcolor" : 1,
					"maxclass" : "textbutton",
					"numinlets" : 1,
					"numoutlets" : 3,
					"outlettype" : [ "", "", "int" ],
					"parameter_enable" : 0,
					"patching_rect" : [ 1231.0, 460.0, 20.0, 20.0 ],
					"rounded" : 60.0,
					"text" : "2",
					"textcolor" : [ 0.34902, 0.34902, 0.34902, 1.0 ]
				}

			}
, 			{
				"box" : 				{
					"attr" : "preserve_aspect",
					"id" : "obj-181",
					"maxclass" : "attrui",
					"numinlets" : 1,
					"numoutlets" : 1,
					"outlettype" : [ "" ],
					"parameter_enable" : 0,
					"patching_rect" : [ 166.0, 103.0, 150.0, 22.0 ],
					"text_width" : 115.0
				}

			}
 ],
		"lines" : [ 			{
				"patchline" : 				{
					"destination" : [ "obj-29", 2 ],
					"order" : 0,
					"source" : [ "obj-1", 0 ]
				}

			}
, 			{
				"patchline" : 				{
					"destination" : [ "obj-37", 0 ],
					"order" : 1,
					"source" : [ "obj-1", 0 ]
				}

			}
, 			{
				"patchline" : 				{
					"destination" : [ "obj-6", 0 ],
					"source" : [ "obj-10", 0 ]
				}

			}
, 			{
				"patchline" : 				{
					"destination" : [ "obj-64", 0 ],
					"source" : [ "obj-100", 0 ]
				}

			}
, 			{
				"patchline" : 				{
					"destination" : [ "obj-52", 0 ],
					"source" : [ "obj-105", 0 ]
				}

			}
, 			{
				"patchline" : 				{
					"destination" : [ "obj-117", 0 ],
					"source" : [ "obj-109", 0 ]
				}

			}
, 			{
				"patchline" : 				{
					"destination" : [ "obj-115", 0 ],
					"source" : [ "obj-110", 0 ]
				}

			}
, 			{
				"patchline" : 				{
					"destination" : [ "obj-46", 2 ],
					"source" : [ "obj-111", 0 ]
				}

			}
, 			{
				"patchline" : 				{
					"destination" : [ "obj-46", 1 ],
					"source" : [ "obj-112", 0 ]
				}

			}
, 			{
				"patchline" : 				{
					"destination" : [ "obj-109", 0 ],
					"source" : [ "obj-115", 0 ]
				}

			}
, 			{
				"patchline" : 				{
					"destination" : [ "obj-117", 0 ],
					"source" : [ "obj-116", 0 ]
				}

			}
, 			{
				"patchline" : 				{
					"destination" : [ "obj-88", 0 ],
					"source" : [ "obj-117", 0 ]
				}

			}
, 			{
				"patchline" : 				{
					"destination" : [ "obj-86", 0 ],
					"source" : [ "obj-118", 0 ]
				}

			}
, 			{
				"patchline" : 				{
					"destination" : [ "obj-33", 0 ],
					"source" : [ "obj-119", 0 ]
				}

			}
, 			{
				"patchline" : 				{
					"destination" : [ "obj-33", 0 ],
					"source" : [ "obj-121", 0 ]
				}

			}
, 			{
				"patchline" : 				{
					"destination" : [ "obj-86", 0 ],
					"source" : [ "obj-122", 1 ]
				}

			}
, 			{
				"patchline" : 				{
					"destination" : [ "obj-122", 0 ],
					"source" : [ "obj-124", 0 ]
				}

			}
, 			{
				"patchline" : 				{
					"destination" : [ "obj-86", 0 ],
					"source" : [ "obj-126", 0 ]
				}

			}
, 			{
				"patchline" : 				{
					"destination" : [ "obj-86", 0 ],
					"source" : [ "obj-127", 0 ]
				}

			}
, 			{
				"patchline" : 				{
					"destination" : [ "obj-33", 0 ],
					"source" : [ "obj-129", 0 ]
				}

			}
, 			{
				"patchline" : 				{
					"destination" : [ "obj-93", 1 ],
					"source" : [ "obj-13", 0 ]
				}

			}
, 			{
				"patchline" : 				{
					"destination" : [ "obj-133", 3 ],
					"source" : [ "obj-130", 0 ]
				}

			}
, 			{
				"patchline" : 				{
					"destination" : [ "obj-133", 1 ],
					"source" : [ "obj-131", 0 ]
				}

			}
, 			{
				"patchline" : 				{
					"destination" : [ "obj-133", 0 ],
					"source" : [ "obj-132", 0 ]
				}

			}
, 			{
				"patchline" : 				{
					"destination" : [ "obj-134", 0 ],
					"source" : [ "obj-133", 0 ]
				}

			}
, 			{
				"patchline" : 				{
					"destination" : [ "obj-117", 0 ],
					"source" : [ "obj-134", 0 ]
				}

			}
, 			{
				"patchline" : 				{
					"destination" : [ "obj-55", 0 ],
					"source" : [ "obj-135", 0 ]
				}

			}
, 			{
				"patchline" : 				{
					"destination" : [ "obj-16", 1 ],
					"order" : 0,
					"source" : [ "obj-14", 0 ]
				}

			}
, 			{
				"patchline" : 				{
					"destination" : [ "obj-17", 0 ],
					"order" : 1,
					"source" : [ "obj-14", 0 ]
				}

			}
, 			{
				"patchline" : 				{
					"destination" : [ "obj-81", 0 ],
					"source" : [ "obj-142", 1 ]
				}

			}
, 			{
				"patchline" : 				{
					"destination" : [ "obj-94", 0 ],
					"source" : [ "obj-143", 0 ]
				}

			}
, 			{
				"patchline" : 				{
					"destination" : [ "obj-93", 3 ],
					"source" : [ "obj-15", 0 ]
				}

			}
, 			{
				"patchline" : 				{
					"destination" : [ "obj-33", 0 ],
					"source" : [ "obj-156", 0 ]
				}

			}
, 			{
				"patchline" : 				{
					"destination" : [ "obj-33", 0 ],
					"source" : [ "obj-158", 0 ]
				}

			}
, 			{
				"patchline" : 				{
					"destination" : [ "obj-17", 0 ],
					"source" : [ "obj-16", 0 ]
				}

			}
, 			{
				"patchline" : 				{
					"destination" : [ "obj-18", 0 ],
					"source" : [ "obj-17", 0 ]
				}

			}
, 			{
				"patchline" : 				{
					"destination" : [ "obj-33", 0 ],
					"source" : [ "obj-176", 0 ]
				}

			}
, 			{
				"patchline" : 				{
					"destination" : [ "obj-156", 0 ],
					"source" : [ "obj-178", 0 ]
				}

			}
, 			{
				"patchline" : 				{
					"destination" : [ "obj-3", 0 ],
					"source" : [ "obj-18", 0 ]
				}

			}
, 			{
				"patchline" : 				{
					"destination" : [ "obj-6", 0 ],
					"source" : [ "obj-181", 0 ]
				}

			}
, 			{
				"patchline" : 				{
					"destination" : [ "obj-33", 0 ],
					"source" : [ "obj-183", 0 ]
				}

			}
, 			{
				"patchline" : 				{
					"destination" : [ "obj-6", 0 ],
					"midpoints" : [ 75.5, 306.49609375, 114.9296875, 306.49609375, 114.9296875, 123.0, 137.5, 123.0 ],
					"source" : [ "obj-184", 0 ]
				}

			}
, 			{
				"patchline" : 				{
					"destination" : [ "obj-93", 4 ],
					"source" : [ "obj-187", 0 ]
				}

			}
, 			{
				"patchline" : 				{
					"destination" : [ "obj-185", 0 ],
					"order" : 0,
					"source" : [ "obj-19", 0 ]
				}

			}
, 			{
				"patchline" : 				{
					"destination" : [ "obj-35", 0 ],
					"order" : 1,
					"source" : [ "obj-19", 0 ]
				}

			}
, 			{
				"patchline" : 				{
					"destination" : [ "obj-180", 0 ],
					"order" : 0,
					"source" : [ "obj-2", 0 ]
				}

			}
, 			{
				"patchline" : 				{
					"destination" : [ "obj-184", 1 ],
					"order" : 2,
					"source" : [ "obj-2", 0 ]
				}

			}
, 			{
				"patchline" : 				{
					"destination" : [ "obj-3", 0 ],
					"order" : 1,
					"source" : [ "obj-2", 0 ]
				}

			}
, 			{
				"patchline" : 				{
					"destination" : [ "obj-98", 0 ],
					"source" : [ "obj-20", 0 ]
				}

			}
, 			{
				"patchline" : 				{
					"destination" : [ "obj-2", 0 ],
					"source" : [ "obj-21", 0 ]
				}

			}
, 			{
				"patchline" : 				{
					"destination" : [ "obj-16", 0 ],
					"source" : [ "obj-22", 0 ]
				}

			}
, 			{
				"patchline" : 				{
					"destination" : [ "obj-29", 0 ],
					"source" : [ "obj-25", 0 ]
				}

			}
, 			{
				"patchline" : 				{
					"destination" : [ "obj-29", 1 ],
					"source" : [ "obj-26", 0 ]
				}

			}
, 			{
				"patchline" : 				{
					"destination" : [ "obj-142", 1 ],
					"source" : [ "obj-29", 0 ]
				}

			}
, 			{
				"patchline" : 				{
					"destination" : [ "obj-19", 0 ],
					"source" : [ "obj-3", 0 ]
				}

			}
, 			{
				"patchline" : 				{
					"destination" : [ "obj-33", 0 ],
					"source" : [ "obj-30", 0 ]
				}

			}
, 			{
				"patchline" : 				{
					"destination" : [ "obj-25", 0 ],
					"source" : [ "obj-34", 0 ]
				}

			}
, 			{
				"patchline" : 				{
					"destination" : [ "obj-34", 0 ],
					"source" : [ "obj-35", 0 ]
				}

			}
, 			{
				"patchline" : 				{
					"destination" : [ "obj-1", 1 ],
					"order" : 0,
					"source" : [ "obj-36", 0 ]
				}

			}
, 			{
				"patchline" : 				{
					"destination" : [ "obj-1", 0 ],
					"order" : 1,
					"source" : [ "obj-36", 0 ]
				}

			}
, 			{
				"patchline" : 				{
					"destination" : [ "obj-35", 0 ],
					"source" : [ "obj-37", 0 ]
				}

			}
, 			{
				"patchline" : 				{
					"destination" : [ "obj-6", 0 ],
					"source" : [ "obj-39", 0 ]
				}

			}
, 			{
				"patchline" : 				{
					"destination" : [ "obj-46", 0 ],
					"source" : [ "obj-40", 0 ]
				}

			}
, 			{
				"patchline" : 				{
					"destination" : [ "obj-25", 0 ],
					"source" : [ "obj-43", 0 ]
				}

			}
, 			{
				"patchline" : 				{
					"destination" : [ "obj-25", 0 ],
					"source" : [ "obj-44", 0 ]
				}

			}
, 			{
				"patchline" : 				{
					"destination" : [ "obj-49", 0 ],
					"source" : [ "obj-46", 0 ]
				}

			}
, 			{
				"patchline" : 				{
					"destination" : [ "obj-133", 2 ],
					"source" : [ "obj-48", 0 ]
				}

			}
, 			{
				"patchline" : 				{
					"destination" : [ "obj-117", 0 ],
					"source" : [ "obj-49", 0 ]
				}

			}
, 			{
				"patchline" : 				{
					"destination" : [ "obj-2", 0 ],
					"source" : [ "obj-5", 0 ]
				}

			}
, 			{
				"patchline" : 				{
					"destination" : [ "obj-43", 0 ],
					"order" : 1,
					"source" : [ "obj-50", 0 ]
				}

			}
, 			{
				"patchline" : 				{
					"destination" : [ "obj-44", 0 ],
					"order" : 0,
					"source" : [ "obj-50", 0 ]
				}

			}
, 			{
				"patchline" : 				{
					"destination" : [ "obj-54", 0 ],
					"order" : 0,
					"source" : [ "obj-52", 0 ]
				}

			}
, 			{
				"patchline" : 				{
					"destination" : [ "obj-59", 0 ],
					"order" : 1,
					"source" : [ "obj-52", 0 ]
				}

			}
, 			{
				"patchline" : 				{
					"destination" : [ "obj-117", 0 ],
					"source" : [ "obj-53", 0 ]
				}

			}
, 			{
				"patchline" : 				{
					"destination" : [ "obj-53", 0 ],
					"source" : [ "obj-54", 0 ]
				}

			}
, 			{
				"patchline" : 				{
					"destination" : [ "obj-117", 0 ],
					"source" : [ "obj-55", 0 ]
				}

			}
, 			{
				"patchline" : 				{
					"destination" : [ "obj-116", 0 ],
					"source" : [ "obj-59", 0 ]
				}

			}
, 			{
				"patchline" : 				{
					"destination" : [ "obj-115", 2 ],
					"source" : [ "obj-60", 0 ]
				}

			}
, 			{
				"patchline" : 				{
					"destination" : [ "obj-115", 1 ],
					"source" : [ "obj-61", 0 ]
				}

			}
, 			{
				"patchline" : 				{
					"destination" : [ "obj-13", 0 ],
					"source" : [ "obj-64", 1 ]
				}

			}
, 			{
				"patchline" : 				{
					"destination" : [ "obj-15", 0 ],
					"source" : [ "obj-64", 3 ]
				}

			}
, 			{
				"patchline" : 				{
					"destination" : [ "obj-187", 0 ],
					"source" : [ "obj-64", 2 ]
				}

			}
, 			{
				"patchline" : 				{
					"destination" : [ "obj-9", 0 ],
					"source" : [ "obj-64", 0 ]
				}

			}
, 			{
				"patchline" : 				{
					"destination" : [ "obj-143", 0 ],
					"source" : [ "obj-81", 0 ]
				}

			}
, 			{
				"patchline" : 				{
					"destination" : [ "obj-81", 0 ],
					"source" : [ "obj-83", 0 ]
				}

			}
, 			{
				"patchline" : 				{
					"destination" : [ "obj-33", 0 ],
					"source" : [ "obj-85", 0 ]
				}

			}
, 			{
				"patchline" : 				{
					"destination" : [ "obj-86", 0 ],
					"source" : [ "obj-89", 0 ]
				}

			}
, 			{
				"patchline" : 				{
					"destination" : [ "obj-93", 0 ],
					"source" : [ "obj-9", 0 ]
				}

			}
, 			{
				"patchline" : 				{
					"destination" : [ "obj-2", 0 ],
					"order" : 0,
					"source" : [ "obj-90", 0 ]
				}

			}
, 			{
				"patchline" : 				{
					"destination" : [ "obj-6", 0 ],
					"order" : 1,
					"source" : [ "obj-90", 0 ]
				}

			}
, 			{
				"patchline" : 				{
					"destination" : [ "obj-93", 0 ],
					"source" : [ "obj-92", 0 ]
				}

			}
, 			{
				"patchline" : 				{
					"destination" : [ "obj-33", 0 ],
					"source" : [ "obj-93", 0 ]
				}

			}
, 			{
				"patchline" : 				{
					"destination" : [ "obj-93", 2 ],
					"source" : [ "obj-94", 0 ]
				}

			}
, 			{
				"patchline" : 				{
					"destination" : [ "obj-64", 1 ],
					"source" : [ "obj-98", 0 ]
				}

			}
, 			{
				"patchline" : 				{
					"destination" : [ "obj-93", 0 ],
					"source" : [ "obj-99", 0 ]
				}

			}
 ],
		"originid" : "pat-111",
		"parameters" : 		{
			"obj-105" : [ "number", "number", 0 ],
			"obj-110" : [ "number[8]", "number[8]", 0 ],
			"obj-111" : [ "number[11]", "number[11]", 0 ],
			"obj-112" : [ "number[12]", "number[12]", 0 ],
			"obj-40" : [ "number[13]", "number[13]", 0 ],
			"obj-60" : [ "number[10]", "number[10]", 0 ],
			"obj-61" : [ "number[9]", "number[9]", 0 ],
			"parameterbanks" : 			{
				"0" : 				{
					"index" : 0,
					"name" : "",
					"parameters" : [ "-", "-", "-", "-", "-", "-", "-", "-" ]
				}

			}
,
			"inherited_shortname" : 1
		}
,
		"dependency_cache" : [ 			{
				"name" : "shadertoy_samurai_video.mp4",
				"bootpath" : "~/Documents/Max 9/Library",
				"patcherrelativepath" : "../../../../../../Documents/Max 9/Library",
				"type" : "mpg4",
				"implicit" : 1
			}
 ],
		"autosave" : 0
	}

}
